<?xml version="1.0" standalone="no"?>
<!DOCTYPE svg PUBLIC "-//W3C//DTD SVG 20010904//EN"
 "http://www.w3.org/TR/2001/REC-SVG-20010904/DTD/svg10.dtd">
<svg version="1.0" xmlns="http://www.w3.org/2000/svg"
 width="568.000000pt" height="568.000000pt" viewBox="0 0 568.000000 568.000000"
 preserveAspectRatio="xMidYMid meet">
<metadata>
Created by potrace 1.13, written by Peter Selinger 2001-2015
</metadata>
<g transform="translate(0.000000,568.000000) scale(0.100000,-0.100000)"
fill="#000000" stroke="none">
<path d="M3720 5521 c-116 -24 -296 -189 -480 -438 l-105 -143 -107 0 c-60 0
-108 2 -108 5 0 2 70 104 155 227 85 123 155 231 155 240 0 35 -19 26 -63 -32
-99 -128 -291 -252 -472 -305 -69 -21 -120 -28 -217 -32 -198 -9 -317 24 -392
107 -30 33 -36 48 -36 85 0 35 6 51 30 79 46 52 106 71 220 70 146 -1 264 -52
296 -130 16 -39 24 -41 49 -14 38 42 -23 101 -154 146 -170 59 -421 43 -512
-33 -91 -77 -73 -189 44 -266 149 -99 400 -121 638 -56 103 28 280 117 369
185 l75 58 -39 -55 c-88 -123 -210 -269 -226 -269 -9 0 -40 7 -68 15 -55 17
-72 14 -72 -11 0 -16 57 -44 90 -44 11 0 20 -4 20 -9 0 -10 -149 -191 -299
-361 -104 -120 -112 -143 -45 -148 28 -2 47 3 62 15 12 10 95 122 185 248
l163 230 113 3 113 3 -108 -158 c-59 -87 -132 -192 -161 -233 -63 -88 -65
-114 -11 -118 20 -2 45 1 55 6 10 6 40 50 67 99 27 48 91 160 142 249 l94 161
72 13 c219 38 414 132 535 258 106 110 144 244 88 311 -14 16 -34 32 -43 35
-40 11 -79 13 -112 7z m91 -70 c64 -64 27 -183 -89 -293 -73 -68 -147 -111
-257 -151 -76 -27 -234 -62 -242 -53 -7 6 134 211 207 302 165 201 304 272
381 195z"/>
<path d="M1280 5151 c-161 -52 -291 -161 -416 -347 -168 -251 -262 -606 -234
-878 23 -226 119 -390 276 -469 95 -48 120 -51 439 -52 261 -1 315 -4 415 -23
211 -39 420 -107 637 -208 155 -72 159 -69 -91 -69 -201 -1 -233 -3 -347 -28
-69 -14 -177 -43 -239 -63 -111 -36 -396 -170 -417 -196 -9 -11 22 -12 180
-10 573 9 1108 -136 1514 -410 76 -50 165 -123 273 -220 l63 -58 -89 30 c-311
106 -653 182 -1344 300 -390 67 -541 98 -651 135 -210 72 -236 144 -102 285
160 170 390 265 737 306 80 9 146 21 146 25 0 18 -64 24 -270 24 -161 -1 -239
-5 -310 -19 -436 -81 -792 -246 -1021 -475 -74 -75 -104 -113 -132 -171 -79
-159 -66 -308 34 -394 108 -92 314 -111 844 -80 377 22 980 29 1205 15 644
-42 1182 -172 1698 -411 l107 -50 -45 40 c-74 67 -288 206 -421 274 l-124 64
66 5 c137 12 251 70 374 192 170 169 296 416 357 699 30 141 30 367 0 477 -27
101 -70 184 -126 245 l-45 49 20 -58 c62 -183 36 -419 -66 -604 -51 -90 -162
-200 -243 -241 -198 -98 -422 -78 -707 63 -182 90 -184 91 -243 189 -153 257
-383 488 -627 631 -177 104 -352 166 -594 210 -172 31 -266 57 -357 99 -253
118 -383 303 -384 549 0 110 24 206 80 322 60 124 130 210 222 275 64 45 68
50 42 49 -16 0 -54 -8 -84 -18z"/>
<path d="M4040 5057 c-73 -25 -106 -132 -55 -182 13 -14 29 -25 35 -25 19 0
10 -18 -50 -108 -76 -114 -188 -222 -230 -222 -28 0 -30 2 -30 38 0 48 57 168
133 280 32 45 57 87 57 92 0 17 -57 11 -78 -7 -32 -27 -129 -179 -173 -268
-72 -149 -207 -238 -170 -113 13 43 102 212 147 278 53 77 17 115 -111 115
-86 0 -119 -12 -167 -59 -50 -51 -37 -100 25 -94 29 3 31 6 31 43 1 33 6 43
35 62 42 28 118 32 128 7 7 -20 -35 -102 -59 -115 -9 -5 -31 -9 -48 -9 -49 0
-177 -47 -237 -87 -59 -39 -106 -100 -117 -150 -6 -27 -3 -37 18 -58 47 -47
130 -24 226 62 l50 45 -15 -42 c-27 -77 -16 -110 37 -110 36 0 80 22 136 67
l42 34 0 -36 c0 -27 5 -38 23 -46 81 -37 269 107 397 303 48 74 60 85 95 94
22 6 48 14 57 18 16 7 17 6 4 -19 -18 -34 -11 -53 19 -61 45 -11 59 -2 59 41
1 33 6 43 35 62 42 28 118 32 128 7 7 -20 -35 -102 -59 -115 -9 -5 -31 -9 -48
-9 -49 0 -177 -47 -237 -87 -59 -39 -106 -100 -117 -150 -6 -27 -3 -37 18 -58
47 -47 130 -24 226 62 l50 45 -15 -42 c-18 -51 -19 -82 -3 -98 19 -19 69 -14
114 12 39 22 41 22 53 5 6 -11 18 -19 26 -19 8 0 98 78 200 174 101 96 199
184 216 197 28 19 24 12 -25 -52 -63 -83 -136 -224 -161 -314 -10 -33 -18 -61
-20 -63 -1 -1 -56 -15 -121 -32 -65 -16 -262 -69 -436 -119 -461 -131 -535
-145 -738 -146 l-165 0 -68 33 c-74 37 -118 86 -139 154 -6 21 -14 38 -17 38
-4 0 -23 -14 -43 -30 -117 -97 4 -238 230 -270 150 -21 368 20 892 170 310 88
551 150 587 150 19 0 23 -5 23 -32 0 -39 30 -92 62 -109 106 -57 258 -4 258
90 0 72 -55 111 -156 111 l-57 0 6 63 c12 132 98 297 211 407 59 57 66 70 41
70 -47 0 -191 -101 -322 -224 -46 -43 -83 -75 -83 -72 0 8 91 145 137 205 36
48 33 65 -13 59 -24 -2 -49 -30 -154 -170 -141 -188 -163 -214 -204 -235 -41
-21 -53 -5 -37 49 13 43 102 212 147 278 48 70 19 109 -89 117 -44 4 -75 0
-107 -12 -25 -9 -56 -19 -70 -21 -63 -11 -110 -16 -110 -11 0 2 7 21 15 40 16
39 20 95 7 113 -12 19 -45 23 -82 11z m-580 -370 c-44 -78 -142 -147 -210
-147 -83 0 -29 103 84 162 36 19 146 49 154 43 2 -2 -11 -28 -28 -58z m850 0
c-44 -78 -142 -147 -210 -147 -83 0 -29 103 84 162 36 19 146 49 154 43 2 -2
-11 -28 -28 -58z m532 -347 c42 -12 58 -34 58 -77 0 -37 -16 -53 -55 -53 -47
0 -95 61 -95 121 0 22 32 25 92 9z"/>
<path d="M1644 4946 c-183 -59 -319 -214 -347 -397 -29 -188 59 -383 219 -485
158 -101 372 -101 528 0 137 89 226 251 226 411 0 183 -108 353 -279 438 -82
41 -87 42 -195 44 -71 2 -126 -2 -152 -11z"/>
<path d="M5176 4930 c-68 -21 -133 -91 -119 -127 6 -15 43 -26 69 -21 13 2 18
13 18 43 1 33 6 43 35 62 42 28 118 32 128 7 7 -20 -35 -102 -59 -115 -9 -5
-31 -9 -48 -9 -49 0 -177 -47 -237 -87 -59 -39 -106 -100 -117 -150 -6 -27 -3
-37 18 -58 47 -47 130 -24 226 62 l50 45 -15 -42 c-27 -77 -16 -110 37 -110
56 0 158 72 229 161 52 66 25 56 -42 -16 -102 -108 -156 -122 -130 -33 13 43
102 212 147 278 50 72 19 110 -94 116 -37 2 -80 -1 -96 -6z m24 -243 c-44 -78
-142 -147 -210 -147 -83 0 -29 103 84 162 36 19 146 49 154 43 2 -2 -11 -28
-28 -58z"/>
<path d="M3361 3844 c-81 -22 -149 -62 -216 -129 -196 -196 -191 -501 11 -695
269 -259 714 -129 809 235 66 253 -95 523 -350 590 -73 19 -182 18 -254 -1z"/>
<path d="M1060 1562 c-15 -12 -25 -35 -31 -68 -4 -27 -8 -338 -8 -691 l-1
-643 35 0 35 0 0 659 c0 653 2 693 32 663 5 -5 112 -290 237 -633 125 -343
235 -636 245 -652 33 -50 104 -49 131 3 13 25 15 119 15 695 l0 665 -35 0 -35
0 0 -655 c0 -547 -2 -655 -14 -655 -7 0 -20 19 -29 43 -9 23 -109 298 -222
610 -113 313 -212 584 -219 602 -29 69 -89 95 -136 57z"/>
<path d="M2385 1566 c-139 -34 -252 -133 -328 -286 -54 -112 -74 -184 -87
-317 -25 -267 50 -522 198 -672 41 -42 88 -78 122 -93 156 -73 337 -59 470 36
l50 36 0 -55 0 -55 35 0 35 0 0 302 c0 435 13 418 -314 418 l-216 0 0 -40 0
-40 210 0 c197 0 211 -1 230 -20 19 -19 20 -33 20 -209 l0 -189 -51 -46 c-27
-25 -76 -58 -107 -73 -50 -24 -68 -27 -152 -27 -132 0 -193 25 -280 113 -72
72 -125 168 -157 281 -25 93 -25 377 0 470 31 111 85 208 157 281 87 88 147
113 280 113 86 1 101 -2 161 -30 42 -20 87 -52 121 -87 l55 -56 22 23 c28 30
22 44 -46 107 -120 112 -272 153 -428 115z"/>
<path d="M1820 860 l0 -700 35 0 35 0 0 700 0 700 -35 0 -35 0 0 -700z"/>
<path d="M2950 860 l0 -700 35 0 35 0 0 350 0 350 290 0 290 0 0 -350 0 -350
35 0 35 0 0 700 0 700 -35 0 -35 0 0 -310 0 -310 -290 0 -290 0 0 310 0 310
-35 0 -35 0 0 -700z"/>
<path d="M3720 1520 l0 -40 155 0 155 0 0 -660 0 -660 30 0 30 0 0 660 0 660
155 0 155 0 0 40 0 40 -340 0 -340 0 0 -40z"/>
<path d="M4681 1544 c-143 -38 -203 -127 -203 -299 0 -69 5 -104 22 -149 37
-99 81 -133 345 -277 171 -92 225 -167 225 -310 0 -170 -91 -256 -280 -266
-75 -4 -90 -2 -130 19 -68 36 -101 108 -108 233 l-5 95 -30 0 -30 0 6 -102 c8
-136 29 -200 87 -259 57 -60 102 -72 235 -67 120 5 186 30 241 90 114 126 122
360 18 509 -34 49 -104 96 -272 183 -198 102 -243 151 -258 279 -8 70 15 153
53 189 54 50 90 61 213 66 105 3 119 1 160 -20 77 -40 110 -109 110 -235 l0
-73 31 0 32 0 -6 103 c-3 59 -12 123 -23 151 -22 62 -85 127 -140 144 -55 16
-226 14 -293 -4z"/>
</g>
</svg>
