<?xml version="1.0" standalone="no"?>
<!DOCTYPE svg PUBLIC "-//W3C//DTD SVG 20010904//EN"
 "http://www.w3.org/TR/2001/REC-SVG-20010904/DTD/svg10.dtd">
<svg version="1.0" xmlns="http://www.w3.org/2000/svg"
 width="300.000000pt" height="300.000000pt" viewBox="0 0 300.000000 300.000000"
 preserveAspectRatio="xMidYMid meet">
<metadata>
Created by potrace 1.10, written by Peter Selinger 2001-2011
</metadata>
<g transform="translate(0.000000,300.000000) scale(0.050000,-0.050000)"
fill="#919e2c" stroke="none">
<path d="M1532 5351 c-640 -229 -1064 -1493 -690 -2058 154 -232 290 -275 885
-282 453 -5 542 -17 853 -109 245 -72 655 -248 710 -304 14 -15 -41 -17 -180
-8 -445 30 -1029 -108 -1400 -331 l-100 -60 140 12 c687 59 1658 -200 2200
-587 137 -98 414 -335 426 -365 3 -8 -91 16 -210 54 -237 75 -462 137 -616
170 -55 12 -131 28 -170 37 -162 37 -315 65 -760 141 -1261 214 -1451 291
-1312 528 161 274 571 466 1122 523 l140 15 -80 18 c-95 22 -555 6 -710 -25
-997 -197 -1713 -754 -1581 -1228 75 -265 302 -311 1297 -260 1226 62 2073 15
2764 -155 352 -86 796 -236 1019 -344 123 -60 129 -62 110 -31 -24 39 -354
246 -539 338 l-180 90 137 14 c763 75 1325 1540 827 2156 -22 28 -35 35 -29
17 150 -422 -60 -984 -436 -1168 -283 -139 -575 -108 -999 105 -224 112 -210
100 -310 268 -349 589 -903 967 -1620 1107 -447 88 -609 159 -802 350 -360
358 -287 974 159 1346 73 60 54 68 -65 26z"/>
<path d="M1964 5039 c-481 -240 -479 -922 2 -1159 680 -334 1275 562 710 1070
-185 166 -483 203 -712 89z"/>
<path d="M4435 3599 c-752 -187 -631 -1280 142 -1279 575 1 864 684 464 1097
-146 150 -413 230 -606 182z"/>
</g>
</svg>
