<?xml version="1.0" standalone="no"?>
<!DOCTYPE svg PUBLIC "-//W3C//DTD SVG 20010904//EN"
 "http://www.w3.org/TR/2001/REC-SVG-20010904/DTD/svg10.dtd">
<svg version="1.0" xmlns="http://www.w3.org/2000/svg"
 width="300.000000pt" height="300.000000pt" viewBox="0 0 300.000000 300.000000"
 preserveAspectRatio="xMidYMid meet">
<metadata>
Created by potrace 1.10, written by Peter Selinger 2001-2011
</metadata>
<g transform="translate(0.000000,300.000000) scale(0.050000,-0.050000)"
fill="#ffffff" stroke="none">
<path d="M1514 5352 c-714 -294 -1099 -1673 -602 -2161 164 -162 239 -180 738
-183 600 -2 934 -75 1420 -308 l200 -96 -287 -2 c-447 -3 -823 -96 -1211 -299
l-178 -93 378 -12 c973 -32 1672 -288 2280 -833 l117 -106 -118 41 c-391 134
-861 241 -1731 392 -1149 199 -1323 269 -1211 486 137 264 759 532 1260 542
10 0 9 10 -4 22 -35 36 -562 29 -775 -10 -930 -172 -1633 -677 -1607 -1153 22
-385 197 -417 1827 -338 1277 62 2328 -106 3278 -523 184 -81 212 -89 162 -47
-110 94 -358 256 -539 351 l-178 95 78 13 c778 131 1339 1560 847 2156 -77 94
-84 88 -47 -35 158 -527 -218 -1131 -727 -1165 -271 -19 -829 172 -934 319
-18 25 -79 117 -135 205 -346 535 -878 891 -1530 1021 -555 110 -791 232 -956
491 -225 353 -70 968 306 1217 117 78 54 84 -121 13z"/>
<path d="M2057 5093 c-699 -261 -575 -1247 162 -1288 597 -34 917 662 512
1112 -151 167 -474 251 -674 176z"/>
<path d="M4368 3593 c-708 -232 -534 -1283 212 -1283 702 0 907 927 277 1252
-108 56 -364 72 -489 31z"/>
</g>
</svg>
