<?xml version="1.0" standalone="no"?>
<!DOCTYPE svg PUBLIC "-//W3C//DTD SVG 20010904//EN"
 "http://www.w3.org/TR/2001/REC-SVG-20010904/DTD/svg10.dtd">
<svg version="1.0" xmlns="http://www.w3.org/2000/svg"
 width="300.000000pt" height="248.000000pt" viewBox="0 0 300.000000 248.000000"
 preserveAspectRatio="xMidYMid meet">
<metadata>
Created by potrace 1.10, written by Peter Selinger 2001-2011
</metadata>
<g transform="translate(0.000000,248.000000) scale(0.100000,-0.100000)"
fill="#000000" stroke="none">
<path d="M1690 2337 l0 -119 -56 32 c-31 17 -58 30 -59 28 -2 -2 -7 -49 -11
-106 -4 -56 -11 -102 -16 -102 -4 0 -33 14 -64 31 l-55 31 5 -23 c3 -13 7 -54
11 -91 l6 -68 -51 30 c-59 35 -64 36 -52 13 6 -10 22 -62 37 -116 16 -55 35
-105 42 -113 22 -22 -4 -18 -43 7 -36 22 -40 20 -23 -13 9 -16 8 -19 -3 -13
-7 5 -2 -4 11 -18 14 -15 20 -27 14 -27 -16 0 -46 38 -38 50 4 6 -17 43 -47
81 l-53 71 -5 -41 -5 -40 -137 78 c-76 43 -138 77 -138 75 0 -3 12 -27 26 -55
14 -28 24 -52 22 -54 -2 -2 -76 26 -166 61 -232 91 -231 91 -147 4 41 -42 62
-70 50 -66 -11 3 -81 15 -155 26 -74 11 -148 23 -164 26 l-29 6 29 -38 c15
-22 37 -49 48 -61 11 -13 18 -25 15 -27 -2 -2 -63 2 -134 10 -187 19 -180 23
-100 -51 63 -59 67 -65 40 -60 -17 4 -81 -3 -144 -14 -63 -12 -119 -21 -125
-21 -6 0 -6 -3 0 -9 5 -5 54 -19 108 -30 55 -12 103 -24 108 -27 4 -3 8 0 8 5
0 6 -8 11 -17 12 -11 0 -13 2 -5 6 7 3 20 2 28 -1 14 -5 12 -12 -11 -42 -38
-50 -25 -53 15 -3 25 31 30 43 20 49 -21 13 -95 22 -126 15 l-29 -6 30 14 c17
7 75 21 129 31 l99 19 -49 43 -49 43 55 -5 c30 -3 93 -9 140 -13 47 -5 86 -7
88 -6 1 1 -18 27 -43 58 -47 59 -58 84 -28 67 22 -11 333 -59 333 -50 0 10
-86 91 -91 85 -3 -2 -19 9 -35 26 l-29 31 25 -7 c14 -4 39 -14 55 -21 24 -11
25 -13 5 -8 -14 4 -32 9 -40 12 -13 5 -13 3 -1 -11 7 -9 17 -15 21 -12 4 3 81
-24 170 -60 89 -36 163 -65 166 -65 2 0 -5 18 -16 41 -12 23 -20 43 -18 44 2
2 51 -23 108 -55 77 -43 106 -55 108 -44 2 8 6 14 8 14 3 0 44 -40 91 -90 47
-49 89 -90 94 -90 4 0 6 9 4 20 -5 24 -33 66 -43 63 -4 -1 -9 1 -12 4 -3 4 0
4 5 0 6 -3 17 -2 24 2 9 6 4 11 -17 19 -17 6 -32 8 -34 6 -3 -2 -5 3 -5 11 0
19 2 19 32 -1 13 -9 30 -12 36 -8 9 5 10 1 7 -14 -6 -21 7 -40 18 -29 3 3 -9
52 -26 109 -17 56 -34 111 -36 121 -3 9 -9 15 -14 12 -8 -5 -22 36 -15 44 3 2
5 -1 5 -8 0 -7 5 -9 12 -5 7 5 8 3 3 -6 -6 -10 -4 -12 8 -7 9 3 19 1 23 -5 5
-7 2 -8 -6 -3 -9 6 -11 4 -6 -4 5 -7 15 -10 23 -7 8 3 11 2 8 -4 -4 -7 23 -30
37 -30 2 0 1 37 -3 82 -4 46 -6 84 -4 86 2 2 25 -10 51 -27 59 -37 59 -37 71
97 l8 92 52 -35 c29 -19 55 -35 58 -35 3 0 5 42 5 93 0 63 -3 87 -10 77 -7
-11 -10 -3 -10 29 0 24 3 41 8 37 4 -4 7 -18 7 -29 0 -12 5 -21 12 -20 7 2 10
-3 7 -11 -3 -8 4 -33 16 -56 l22 -43 19 29 c23 36 24 43 2 39 -10 -1 -17 -10
-17 -19 2 -22 -3 -20 -17 5 -8 15 -8 19 0 15 19 -12 12 6 -29 79 l-40 70 0
-118z m-42 -109 c69 -38 67 -37 59 -44 -3 -3 -26 8 -51 25 -24 17 -49 31 -55
31 -5 0 -12 -19 -14 -42 -3 -41 -4 -41 -5 10 -1 28 0 52 3 52 3 0 31 -14 63
-32z m-71 -145 c-2 -16 -4 -5 -4 22 0 28 2 40 4 28 2 -13 2 -35 0 -50z m-91 1
c18 -15 18 -15 -3 -5 -19 10 -22 8 -26 -17 -4 -25 -4 -25 -6 6 -1 36 6 39 35
16z m84 -46 c0 -5 -9 -4 -20 2 -11 6 -20 12 -20 14 0 2 9 2 20 -1 11 -3 20 -9
20 -15z m-103 -95 c-2 -16 -4 -5 -4 22 0 28 2 40 4 28 2 -13 2 -35 0 -50z
m-353 -68 c64 -36 121 -65 126 -65 6 0 10 12 10 28 l1 27 35 -40 c19 -22 39
-49 45 -60 6 -11 -8 0 -30 25 -27 30 -41 39 -41 28 0 -9 -3 -19 -8 -22 -4 -2
-54 22 -112 55 -58 32 -108 59 -112 59 -4 0 -3 -12 3 -26 16 -44 4 -37 -19 11
-12 25 -20 45 -18 45 2 0 56 -29 120 -65z m-254 30 c14 -8 21 -14 15 -14 -5 0
-21 6 -35 14 -14 8 -20 14 -15 14 6 0 21 -6 35 -14z m-61 -58 c-2 -2 -17 12
-33 32 l-30 36 34 -32 c19 -18 32 -34 29 -36z m-336 36 c3 -10 22 -39 42 -65
l37 -48 -44 2 c-36 1 -38 2 -10 5 l32 4 -45 60 c-29 37 -41 59 -32 59 8 0 17
-8 20 -17z m487 -13 c8 -5 11 -10 5 -10 -5 0 -17 5 -25 10 -8 5 -10 10 -5 10
6 0 17 -5 25 -10z m-277 -7 c-7 -2 -19 -2 -25 0 -7 3 -2 5 12 5 14 0 19 -2 13
-5z m54 -9 c-3 -3 -12 -4 -19 -1 -8 3 -5 6 6 6 11 1 17 -2 13 -5z m299 -10
c13 -3 24 -10 24 -15 0 -4 -17 -1 -37 8 -39 16 -62 31 -30 20 11 -4 30 -10 43
-13z m-731 -52 l-40 -4 50 -44 c28 -24 46 -44 40 -43 -5 0 -35 22 -65 49 l-55
49 55 -1 c47 -1 49 -2 15 -6z m118 -9 c-13 -2 -35 -2 -50 0 -16 2 -5 4 22 4
28 0 40 -2 28 -4z m-136 -99 c-3 -3 -12 -4 -19 -1 -8 3 -5 6 6 6 11 1 17 -2
13 -5z m-54 -11 c-7 -2 -19 -2 -25 0 -7 3 -2 5 12 5 14 0 19 -2 13 -5z m-78
-18 c-22 -8 -49 -11 -60 -8 -16 6 -14 8 15 14 19 3 46 7 60 7 19 1 15 -3 -15
-13z m52 -31 c-3 -3 -12 -4 -19 -1 -8 3 -5 6 6 6 11 1 17 -2 13 -5z"/>
<path d="M1861 2426 c-6 -7 -9 -20 -6 -28 6 -15 -12 -36 -30 -36 -5 0 -11 -5
-13 -11 -2 -5 6 -8 17 -6 19 3 21 -1 21 -48 0 -75 8 -82 55 -50 60 39 66 50
13 19 -27 -15 -48 -23 -48 -19 0 10 81 49 95 45 7 -1 12 5 12 13 0 20 -3 19
-54 -10 l-43 -26 -2 68 c0 37 -1 76 0 86 2 21 -2 21 -17 3z m6 -133 c-2 -16
-4 -3 -4 27 0 30 2 43 4 28 2 -16 2 -40 0 -55z"/>
<path d="M1837 2393 c-4 -3 -7 -11 -7 -17 0 -6 5 -5 12 2 6 6 9 14 7 17 -3 3
-9 2 -12 -2z"/>
<path d="M2015 2349 c-16 -10 -30 -27 -30 -37 0 -9 -15 -37 -32 -62 -18 -24
-33 -48 -33 -53 0 -5 27 -7 59 -5 33 1 57 0 54 -4 -2 -5 0 -8 6 -8 5 0 13 5
17 11 3 6 16 8 28 6 11 -3 30 -2 41 2 23 9 -49 21 -123 21 l-45 0 20 23 c23
26 83 113 83 121 0 10 -14 5 -45 -15z m3 -29 c-7 -11 -15 -15 -17 -9 -2 6 3
15 10 20 20 12 21 11 7 -11z m-28 -116 c0 -2 -11 -4 -25 -4 -14 0 -25 4 -25 9
0 4 11 6 25 3 14 -2 25 -6 25 -8z"/>
<path d="M1795 2332 c-11 -11 -4 -20 12 -18 22 3 29 23 8 23 -8 0 -17 -3 -20
-5z"/>
<path d="M2057 2179 c-9 -5 -22 -7 -27 -4 -14 9 -52 -14 -44 -27 4 -7 3 -8 -5
-4 -11 7 -171 -73 -171 -86 0 -4 6 -6 13 -4 6 3 38 7 69 10 45 5 56 3 52 -7
-2 -7 -12 -13 -22 -14 -33 -3 -207 -82 -204 -93 1 -7 -2 -9 -8 -5 -12 7 -80
-15 -80 -26 0 -4 36 -9 80 -11 74 -3 99 3 68 15 -7 3 -3 6 10 6 25 1 29 -11 7
-29 -8 -7 -15 -9 -15 -4 0 4 -11 -3 -25 -16 -31 -29 -33 -50 -2 -24 l22 19
-19 -23 c-11 -12 -21 -20 -24 -17 -7 6 -42 -25 -42 -37 0 -5 5 -6 10 -3 17 10
11 -12 -7 -26 -23 -20 -73 -90 -73 -103 0 -6 10 0 21 14 21 25 21 19 2 -27 -3
-7 -1 -13 4 -13 5 0 15 16 22 36 11 32 88 104 144 135 17 9 18 7 11 -27 -9
-46 -6 -46 128 37 53 32 99 59 102 59 3 0 6 -25 6 -56 0 -48 2 -55 16 -50 26
10 234 159 229 164 -2 3 -11 -1 -20 -8 -9 -7 -18 -11 -21 -8 -5 5 60 58 71 58
4 0 3 -36 -1 -81 l-7 -81 32 17 c18 9 73 41 123 71 50 30 93 53 96 49 3 -3 3
-6 1 -8 -13 -10 -260 -147 -264 -147 -3 0 -3 10 -1 23 11 50 17 141 10 134 -4
-4 -8 -15 -9 -25 -1 -9 -5 -47 -9 -84 -4 -38 -5 -68 -2 -68 9 0 184 99 219
122 31 22 32 22 13 -23 -34 -84 -39 -81 81 -44 59 19 109 32 112 30 2 -3 11 1
20 8 9 6 -12 -19 -46 -58 l-62 -70 27 -6 c24 -6 23 -7 -10 -8 -21 0 -38 3 -38
7 0 4 22 30 50 57 27 27 47 51 45 54 -7 6 -125 -110 -125 -123 0 -5 40 -7 98
-4 53 3 79 3 57 -1 l-40 -6 34 -8 c46 -10 63 -9 56 3 -4 6 8 10 29 10 72 0 33
-17 -79 -34 -64 -10 -118 -22 -120 -27 -3 -4 -13 -5 -23 -2 -9 3 8 -18 38 -46
30 -28 60 -49 67 -47 6 3 17 -2 23 -10 7 -8 10 -14 7 -14 -3 0 -65 23 -137 50
-73 28 -135 48 -138 45 -3 -2 3 -34 13 -70 9 -36 15 -68 12 -72 -3 -3 -68 18
-144 47 -76 29 -147 54 -157 55 -11 1 -22 7 -24 13 -4 12 50 -6 232 -77 44
-17 81 -29 82 -28 2 2 -5 36 -16 77 -11 41 -18 75 -17 77 2 1 50 -16 106 -38
57 -22 105 -38 107 -36 2 2 -13 11 -33 20 -47 20 -193 77 -198 77 -2 0 6 -34
17 -76 10 -42 17 -78 15 -80 -2 -2 -79 25 -171 61 -162 62 -167 63 -150 37 66
-102 88 -132 92 -127 3 2 -1 11 -8 20 -7 9 -11 18 -8 21 3 3 15 -11 27 -31 23
-40 28 -60 7 -32 -12 15 -14 16 -20 2 -5 -14 -1 -17 33 -19 8 -1 16 -7 19 -14
3 -10 -3 -10 -30 1 -18 8 -32 19 -31 25 3 11 -335 187 -343 180 -2 -2 20 -36
48 -76 29 -39 54 -69 57 -66 3 2 -1 10 -7 16 -7 7 -12 16 -12 21 0 5 11 -5 25
-21 27 -32 34 -52 11 -33 -10 8 -16 9 -21 1 -3 -5 0 -11 7 -12 7 0 18 -2 23
-2 16 -2 35 -16 35 -26 0 -6 -20 0 -45 12 -25 12 -40 25 -35 28 8 5 -127 74
-210 108 -9 3 -6 -30 4 -46 4 -6 12 -12 17 -12 6 0 7 5 3 11 -5 8 -1 8 14 0
26 -14 35 -14 26 0 -4 8 0 8 15 0 25 -14 27 -22 4 -15 -10 2 40 -25 111 -60
72 -36 132 -63 134 -61 8 7 -109 146 -117 140 -5 -2 -15 3 -22 13 -12 15 -12
16 2 5 9 -7 18 -10 21 -7 3 3 85 -35 182 -83 97 -49 176 -88 176 -86 0 4 -68
113 -91 145 -26 37 -24 39 19 21 20 -9 82 -33 137 -53 55 -21 107 -41 116 -45
15 -6 14 4 -6 75 l-23 81 22 -7 c11 -4 80 -28 151 -54 72 -26 132 -46 135 -43
3 3 -26 34 -63 70 -38 35 -67 66 -65 68 1 1 64 13 138 25 74 13 139 26 143 30
5 4 -34 12 -85 19 -51 6 -115 14 -141 18 l-49 6 88 88 c48 49 86 91 83 94 -3
3 -62 -13 -130 -34 -68 -22 -125 -38 -127 -36 -2 2 5 32 16 67 11 34 20 63 19
64 -1 1 -60 -34 -132 -77 -71 -43 -131 -77 -133 -75 -2 2 2 39 7 82 6 42 9 79
7 82 -3 2 -61 -37 -129 -87 -68 -50 -126 -91 -129 -91 -3 0 -8 23 -10 50 -3
28 -8 53 -11 56 -3 3 -51 -24 -107 -60 -55 -36 -103 -66 -106 -66 -3 0 -2 20
2 45 3 25 3 45 -1 45 -11 0 -96 -72 -91 -77 3 -3 21 7 40 22 l36 27 -1 -38
c-1 -30 -3 -34 -7 -16 l-7 22 -40 -26 c-22 -15 -61 -47 -87 -72 -27 -26 -48
-41 -48 -35 0 6 26 34 57 62 31 28 52 51 47 51 -6 0 -16 -6 -24 -12 -20 -18
26 38 74 90 l40 42 -41 0 c-23 0 -54 -5 -69 -10 -22 -9 -25 -8 -16 3 7 8 9 17
5 21 -4 4 0 4 8 1 14 -5 300 112 317 130 4 4 -27 5 -69 2 -59 -4 -76 -2 -76 8
0 7 6 11 12 9 11 -5 165 72 165 82 0 7 -14 4 -33 -7z m-87 -44 c0 -2 -10 -9
-22 -15 -22 -11 -22 -10 -4 4 21 17 26 19 26 11z m-90 -55 c0 -5 -5 -10 -11
-10 -5 0 -7 5 -4 10 3 6 8 10 11 10 2 0 4 -4 4 -10z m120 -10 c-20 -13 -33
-13 -25 0 3 6 14 10 23 10 15 0 15 -2 2 -10z m-305 -140 c-3 -5 -12 -10 -18
-10 -7 0 -6 4 3 10 19 12 23 12 15 0z m384 -87 c1 -18 5 -33 10 -33 5 0 43 25
85 56 43 31 79 54 82 52 4 -5 -149 -116 -173 -125 -9 -4 -13 6 -13 38 0 70 -8
73 -75 30 -85 -53 -162 -96 -150 -84 6 6 57 41 115 77 101 63 105 65 112 43 3
-12 6 -37 7 -54z m481 43 c-15 -41 -13 -48 13 -40 193 63 229 72 212 54 -10
-11 -21 -17 -25 -15 -4 3 -57 -10 -116 -29 -60 -18 -110 -32 -111 -31 -2 1 4
23 13 49 9 26 18 45 20 43 3 -2 0 -16 -6 -31z m115 -278 l40 -41 -47 37 c-27
21 -48 40 -48 42 0 13 21 -1 55 -38z m-579 -86 c-2 -2 -40 15 -85 37 -44 23
-84 41 -88 40 -4 0 -9 5 -11 11 -2 6 39 -11 92 -37 52 -26 94 -49 92 -51z
m114 24 c0 -6 -7 -2 -15 8 -8 11 -15 25 -15 30 0 6 7 2 15 -8 8 -11 15 -25 15
-30z m-284 -42 c18 -14 18 -14 -6 -3 -31 14 -36 19 -24 19 6 0 19 -7 30 -16z
m250 -22 c-5 -4 -66 26 -66 33 0 3 16 -3 35 -12 19 -9 33 -18 31 -21z"/>
<path d="M2615 1686 c-33 -6 -55 -14 -50 -17 6 -4 48 2 95 12 93 19 54 24 -45
5z"/>
<path d="M680 1580 c-86 -95 -99 -99 -100 -35 0 17 -3 41 -7 54 -6 22 -10 19
-74 -50 l-68 -74 -1 58 c0 31 -3 57 -7 56 -17 -2 -102 -109 -97 -122 2 -7 -7
-24 -21 -37 -14 -13 -25 -19 -25 -13 0 6 6 16 14 22 9 8 13 27 12 52 -2 26 0
36 5 27 7 -10 9 -9 9 4 0 9 3 24 6 32 5 12 2 15 -10 10 -9 -3 -13 -11 -9 -17
3 -5 1 -7 -5 -3 -13 8 -63 -14 -57 -24 3 -5 -3 -11 -12 -14 -10 -4 -14 -4 -10
0 4 4 2 13 -4 21 -9 10 -7 18 6 33 10 11 16 23 12 26 -3 3 -28 -25 -55 -63
-28 -37 -47 -69 -42 -71 5 -2 41 13 80 33 59 30 71 33 67 18 -16 -56 -29 -125
-24 -129 5 -6 117 119 117 131 0 5 -12 -2 -27 -16 l-28 -24 24 27 c13 15 29
25 35 21 6 -3 8 -3 4 2 -8 8 8 45 20 45 4 0 8 -12 9 -27 1 -24 1 -25 -7 -8
-13 31 -16 -26 -4 -88 l6 -29 29 28 c16 15 29 32 29 38 0 5 -11 -1 -25 -14
-14 -13 -25 -19 -25 -14 0 9 40 38 50 36 3 -1 22 15 43 35 l37 37 0 -72 c0
-40 4 -72 8 -72 5 0 41 38 82 85 40 47 75 83 77 81 2 -2 -3 -34 -12 -71 -8
-37 -14 -69 -13 -70 2 -1 57 33 123 75 66 43 122 76 124 74 2 -1 -7 -19 -19
-39 -12 -20 -20 -38 -17 -41 8 -8 236 69 231 78 -3 4 2 5 11 2 11 -5 13 -10 5
-19 -5 -6 -7 -15 -3 -19 7 -7 83 63 83 77 0 4 -10 5 -22 1 -107 -35 -238 -70
-238 -62 0 5 6 21 14 36 7 15 17 37 20 50 7 22 6 21 -41 -8 -26 -17 -48 -35
-48 -40 0 -4 -4 -12 -9 -17 -5 -5 -6 -3 -2 5 12 20 0 15 -85 -38 -83 -51 -99
-58 -99 -39 0 5 4 8 8 5 8 -5 46 144 38 151 -2 2 -41 -37 -86 -87z m294 23
c-9 -21 -18 -44 -22 -52 -4 -11 0 -13 19 -8 13 4 35 9 49 12 30 6 -33 -19 -71
-28 l-27 -7 19 37 c11 21 17 44 14 51 -3 7 -1 11 4 8 5 -3 11 1 15 9 3 8 8 15
11 15 3 0 -2 -17 -11 -37z m-227 5 c-3 -8 -6 -5 -6 6 -1 11 2 17 5 13 3 -3 4
-12 1 -19z m453 -2 c0 -3 -4 -8 -10 -11 -5 -3 -10 -1 -10 4 0 6 5 11 10 11 6
0 10 -2 10 -4z m-629 -76 c0 -33 17 -88 18 -64 1 7 9 15 18 18 13 5 11 0 -7
-19 -22 -24 -25 -24 -31 -8 -4 10 -8 39 -8 66 -1 26 -4 47 -8 47 -4 0 -25 -17
-48 -37 -38 -36 -38 -36 4 9 49 52 60 50 62 -12z m304 34 c-26 -20 -55 -36
-55 -30 0 5 63 46 70 46 3 -1 -4 -8 -15 -16z m-195 -8 c0 -2 -8 -10 -17 -17
-16 -13 -17 -12 -4 4 13 16 21 21 21 13z m-479 -40 c-9 -11 -9 -15 0 -18 6 -2
-1 -9 -16 -16 l-27 -12 22 30 c12 16 24 30 27 30 3 0 0 -6 -6 -14z m590 -5
c-14 -10 -37 -26 -53 -35 -26 -16 -28 -16 -28 -1 0 9 4 14 8 11 5 -3 26 6 48
19 47 29 58 32 25 6z"/>
<path d="M1090 1505 c-25 -25 -38 -45 -30 -45 60 2 293 39 302 48 19 19 7 21
-77 12 -44 -6 -97 -12 -118 -14 -32 -4 -36 -2 -26 10 8 10 9 18 3 24 -6 6 -26
-7 -54 -35z m25 -4 c-3 -5 7 -12 22 -14 22 -3 20 -4 -11 -6 -33 -1 -37 1 -26
14 14 16 25 20 15 6z m198 2 c-7 -2 -21 -2 -30 0 -10 3 -4 5 12 5 17 0 24 -2
18 -5z m-85 -10 c-10 -2 -26 -2 -35 0 -10 3 -2 5 17 5 19 0 27 -2 18 -5z"/>
<path d="M1710 1547 c0 -2 44 -33 98 -68 415 -271 795 -692 1072 -1188 35 -63
66 -109 67 -104 8 23 -182 337 -311 513 -218 299 -507 579 -794 773 -93 63
-132 85 -132 74z"/>
<path d="M1781 1536 c2 -2 36 -26 74 -52 303 -205 617 -516 838 -831 67 -96
171 -264 251 -406 15 -27 30 -46 33 -43 6 6 -91 179 -171 306 -246 387 -575
733 -922 970 -48 33 -92 60 -98 60 -5 0 -7 -2 -5 -4z"/>
<path d="M1254 1461 c-17 -10 -43 -33 -58 -52 -36 -43 -117 -209 -102 -209 6
0 26 4 44 9 17 5 32 8 32 5 0 -2 -31 -55 -69 -117 -38 -61 -68 -113 -67 -115
2 -1 29 9 60 23 32 14 61 23 66 20 4 -3 14 2 21 11 11 13 9 15 -17 9 -22 -4
-19 -1 10 10 22 8 41 14 42 12 2 -1 -9 -17 -23 -36 -18 -22 -28 -29 -33 -21
-5 8 -35 -23 -86 -90 -44 -56 -81 -106 -82 -111 -2 -5 18 0 44 11 26 11 49 18
52 15 8 -8 32 16 26 26 -3 5 3 9 12 9 14 0 12 -6 -11 -30 -31 -32 -41 -38 -29
-17 4 6 -30 -24 -75 -68 -45 -44 -77 -81 -72 -83 5 -2 37 11 70 27 33 17 63
31 67 31 4 0 4 -51 0 -113 -6 -100 -5 -110 9 -93 8 11 12 29 9 41 -4 15 0 24
12 29 14 5 15 4 4 -9 -7 -9 -10 -18 -7 -21 3 -3 22 20 42 51 l37 55 56 -79
c31 -44 59 -78 63 -75 3 2 0 47 -8 101 -7 54 -15 116 -17 138 -5 52 -7 55 -15
25 -7 -22 -8 -19 -12 19 l-5 44 44 -49 43 -49 -6 85 c-3 47 -8 112 -11 145 -5
56 -4 59 11 40 9 -11 12 -21 8 -22 -8 -3 -5 -71 11 -263 l6 -65 -31 53 c-17
30 -33 51 -36 48 -7 -7 68 -136 79 -136 5 0 6 10 4 23 -4 20 -10 90 -22 273
-3 44 -1 63 7 59 6 -4 8 -14 5 -22 -3 -8 16 -48 44 -91 l50 -77 -6 115 c-3 63
-9 150 -13 193 -4 42 -5 77 -3 77 2 0 37 -16 79 -35 42 -19 78 -33 81 -31 2 3
-13 56 -34 118 -21 62 -38 122 -39 133 -1 14 -10 21 -28 23 l-26 3 39 -113
c28 -78 36 -115 29 -123 -7 -7 -9 -6 -7 3 3 13 -127 91 -136 81 -3 -3 0 -73 7
-155 18 -190 18 -196 6 -188 -6 3 -8 13 -5 21 4 9 -13 45 -41 87 -26 39 -49
73 -50 75 -9 14 -8 -19 2 -149 6 -80 10 -146 10 -148 -1 -1 -21 22 -45 53 -24
31 -44 54 -45 53 -1 -2 6 -57 16 -123 11 -66 17 -129 15 -139 -3 -11 -2 -25 2
-31 4 -6 -5 3 -20 20 -15 16 -27 35 -28 40 0 6 9 -1 20 -15 11 -14 20 -22 20
-18 0 12 -61 108 -69 108 -9 0 -61 -92 -61 -106 0 -5 14 13 31 40 28 45 31 47
44 30 8 -11 14 -23 14 -29 0 -5 -6 -2 -14 8 -13 18 -15 16 -41 -23 -17 -25
-31 -37 -37 -31 -5 5 -8 48 -6 95 2 47 0 85 -5 83 -5 -2 -9 -45 -9 -97 -1 -84
-1 -87 -4 -22 -3 65 -6 73 -21 67 -41 -17 -45 -15 -15 5 18 12 30 27 27 32 -4
6 -25 -9 -50 -36 -44 -47 -73 -65 -38 -23 50 60 78 86 84 77 3 -5 28 13 56 41
42 44 45 51 24 45 -14 -3 -33 -6 -42 -6 -10 0 -18 -6 -18 -13 0 -8 -16 -18
-35 -24 -19 -6 -35 -7 -35 -3 0 13 23 25 43 22 9 -2 17 2 17 8 0 6 38 59 85
117 47 59 83 108 81 110 -1 2 -33 -8 -71 -22 -37 -14 -69 -24 -70 -23 -2 2 28
48 65 103 38 55 69 103 69 106 1 3 -20 3 -46 -2 -27 -4 -49 -6 -51 -4 -7 7 76
133 110 168 10 10 15 23 12 29 -4 6 -3 8 4 5 11 -8 42 1 42 12 0 14 -38 9 -66
-8z m-24 -58 c-23 -27 -56 -75 -72 -107 l-30 -59 46 5 c25 3 46 4 46 1 0 -6
-121 -186 -133 -198 -13 -13 -4 2 55 95 26 41 48 79 48 83 0 5 -18 6 -40 2
-40 -7 -40 -7 -31 18 34 88 116 207 143 207 5 0 -9 -21 -32 -47z m304 -148
c20 -61 36 -115 35 -120 0 -9 -89 234 -89 244 0 22 24 -32 54 -124z m-69 -67
c37 -22 25 -24 -16 -2 -17 8 -33 14 -35 11 -2 -2 0 -60 6 -128 10 -121 11
-213 3 -205 -3 2 -6 44 -8 93 -1 48 -6 127 -10 176 -9 97 -9 97 60 55z m-335
-152 c0 -2 -13 -9 -30 -15 -16 -5 -30 -6 -30 -1 0 7 10 11 53 19 4 0 7 -1 7
-3z m-16 -105 c-63 -78 -70 -71 -9 9 26 34 49 59 52 56 3 -2 -17 -32 -43 -65z
m274 -7 c-4 -3 -12 5 -18 18 -12 22 -12 22 6 6 10 -10 15 -20 12 -24z m-121
-231 c-3 -10 -5 -2 -5 17 0 19 2 27 5 18 2 -10 2 -26 0 -35z m22 -126 c1 -10
-3 -16 -7 -13 -4 2 -8 28 -9 58 -1 53 -1 53 8 13 4 -22 8 -48 8 -58z"/>
<path d="M1532 1387 c9 -7 70 -49 135 -94 408 -282 784 -707 1034 -1170 28
-51 55 -93 61 -93 5 0 -1 19 -15 43 -13 23 -48 83 -76 132 -270 470 -649 877
-1068 1149 -39 25 -75 46 -80 46 -4 0 -1 -6 9 -13z"/>
<path d="M1520 1365 c0 -2 40 -32 90 -65 401 -270 766 -678 1040 -1163 37 -64
69 -115 72 -112 12 13 -191 347 -306 505 -235 321 -505 583 -823 798 -60 41
-73 47 -73 37z"/>
</g>
</svg>
