<?xml version="1.0" standalone="no"?>
<!DOCTYPE svg PUBLIC "-//W3C//DTD SVG 20010904//EN"
 "http://www.w3.org/TR/2001/REC-SVG-20010904/DTD/svg10.dtd">
<svg version="1.0" xmlns="http://www.w3.org/2000/svg"
 width="900.000000pt" height="744.000000pt" viewBox="0 0 900.000000 744.000000"
 preserveAspectRatio="xMidYMid meet">
<metadata>
Created by potrace 1.10, written by Peter Selinger 2001-2011
</metadata>
<g transform="translate(0.000000,744.000000) scale(0.100000,-0.100000)"
fill="#919e2c" stroke="none">
<path d="M5056 7341 c-3 -5 -4 -160 -2 -345 2 -185 0 -339 -5 -341 -4 -3 -39
15 -78 40 -38 25 -73 45 -78 45 -5 0 -40 20 -78 45 -102 67 -108 63 -117 -65
-4 -58 -12 -140 -18 -184 -9 -61 -17 -202 -20 -338 0 -15 -38 -8 -63 12 -14
11 -28 20 -32 20 -4 0 -40 20 -80 44 -39 24 -82 47 -93 50 -12 4 -22 11 -22
16 0 5 -16 14 -36 20 -30 10 -38 10 -45 -1 -5 -8 -6 -21 -3 -29 3 -8 10 -64
16 -125 5 -60 16 -153 24 -205 17 -114 18 -147 3 -155 -6 -4 -16 -1 -22 7 -14
17 -119 86 -157 104 -8 4 -31 20 -51 36 -36 27 -59 34 -72 22 -6 -6 37 -142
60 -186 7 -14 13 -34 13 -43 0 -9 6 -37 14 -63 8 -26 22 -74 31 -107 10 -33
28 -91 42 -130 14 -38 27 -83 30 -100 3 -16 10 -35 15 -42 5 -6 13 -24 17 -40
5 -15 12 -36 16 -45 12 -29 -32 -22 -75 12 -21 17 -40 30 -43 30 -4 0 -23 11
-43 25 -44 30 -54 31 -61 5 -8 -30 -20 -25 -56 26 -17 25 -65 87 -105 138 -40
50 -83 108 -95 128 -21 36 -59 63 -71 51 -3 -4 -6 -45 -7 -92 0 -47 -3 -94 -7
-103 -8 -18 -23 -13 -107 35 -22 13 -56 32 -75 42 -19 11 -42 25 -50 31 -8 6
-44 27 -80 46 -144 78 -185 100 -195 108 -11 8 -131 74 -180 98 -16 8 -51 30
-76 49 -26 18 -52 33 -58 33 -18 0 -12 -38 12 -78 13 -20 32 -55 42 -77 10
-22 36 -71 58 -108 31 -52 37 -71 28 -80 -9 -9 -16 -9 -29 1 -9 7 -24 15 -32
18 -8 3 -33 14 -55 24 -22 10 -62 26 -90 35 -27 10 -54 22 -59 27 -6 4 -18 8
-27 8 -9 0 -43 12 -75 26 -33 14 -102 42 -154 61 -121 44 -146 53 -250 96 -47
19 -119 47 -160 61 -41 15 -93 36 -116 47 -50 23 -58 23 -74 4 -11 -14 6 -35
119 -148 72 -73 154 -150 180 -172 27 -22 54 -51 60 -64 11 -22 10 -23 -16
-17 -15 3 -55 10 -87 16 -32 5 -80 13 -105 19 -25 6 -100 17 -166 26 -66 9
-149 21 -185 27 -36 6 -96 14 -135 17 -65 7 -96 12 -245 42 -120 23 -123 23
-118 3 5 -20 177 -249 228 -306 32 -34 39 -68 16 -68 -8 0 -47 7 -87 15 -73
14 -198 27 -454 45 -71 5 -146 14 -165 20 -19 5 -68 10 -107 10 -101 0 -99
-11 18 -110 29 -25 79 -68 110 -96 32 -28 74 -61 93 -75 25 -16 36 -31 34 -44
-3 -18 -15 -21 -103 -31 -108 -12 -192 -28 -269 -50 -26 -8 -67 -14 -89 -14
-22 0 -54 -4 -71 -10 -17 -5 -83 -16 -146 -25 -139 -20 -150 -23 -150 -39 0
-24 35 -43 89 -49 30 -4 59 -11 65 -17 5 -5 19 -10 30 -10 11 0 47 -6 80 -14
108 -24 209 -46 285 -61 41 -8 78 -18 83 -23 4 -4 -3 -19 -15 -32 -27 -29
-135 -173 -159 -211 -9 -14 -23 -32 -31 -40 -7 -8 -34 -44 -60 -80 -34 -50
-43 -69 -34 -78 16 -16 32 -14 74 9 21 11 43 20 50 20 7 0 13 4 13 10 0 5 12
13 27 16 16 4 44 17 63 29 19 12 58 33 85 46 28 14 69 37 93 52 23 15 47 25
52 22 15 -9 12 -49 -5 -81 -8 -16 -15 -42 -15 -59 -1 -16 -7 -41 -15 -55 -8
-14 -14 -37 -15 -52 0 -15 -7 -45 -15 -66 -9 -21 -17 -58 -18 -83 -4 -77 20
-63 149 87 66 76 131 151 147 168 15 17 44 54 65 83 20 29 42 52 48 53 8 0 14
-40 19 -117 10 -156 18 -208 32 -208 7 0 31 23 54 50 23 28 67 77 98 111 68
74 169 187 206 232 46 55 52 45 52 -85 0 -176 12 -303 29 -310 14 -5 38 15 82
71 12 15 54 64 94 108 101 112 111 123 181 207 108 129 113 134 126 127 14 -9
6 -67 -15 -108 -8 -15 -14 -41 -14 -58 0 -17 -5 -41 -11 -52 -7 -12 -18 -49
-26 -82 -37 -160 -36 -162 64 -93 43 29 107 71 143 92 36 21 67 41 70 44 9 11
69 51 75 51 4 0 52 30 107 68 55 37 107 72 116 77 9 6 43 30 75 53 73 55 112
44 62 -18 -7 -8 -15 -22 -19 -30 -3 -8 -15 -28 -26 -45 -11 -16 -23 -37 -27
-45 -3 -8 -15 -27 -25 -42 -10 -14 -18 -31 -18 -36 0 -20 33 -21 75 -2 24 11
50 20 57 20 7 0 30 6 53 14 22 7 87 28 145 46 58 18 119 38 135 45 44 18 95
36 134 45 18 5 38 13 44 19 6 6 20 11 30 11 10 0 31 7 47 16 15 10 35 14 45
11 23 -9 17 -15 -161 -187 -83 -80 -152 -150 -153 -156 0 -7 6 -14 14 -17 15
-6 132 10 148 20 6 3 55 10 111 14 135 10 333 36 347 45 6 4 68 11 138 15 170
12 183 16 194 63 13 53 0 63 -61 47 -27 -6 -100 -16 -163 -21 -63 -5 -141 -14
-174 -20 -33 -5 -85 -10 -116 -10 -31 0 -76 -7 -99 -15 -60 -21 -92 -20 -88 3
3 19 114 145 236 270 56 57 79 102 52 102 -18 0 -134 -41 -145 -51 -5 -5 -23
-9 -40 -9 -16 0 -39 -7 -49 -15 -11 -8 -32 -15 -47 -15 -15 0 -40 -7 -55 -15
-16 -8 -37 -15 -48 -15 -10 0 -39 -7 -65 -14 -25 -8 -73 -22 -106 -31 -33 -9
-73 -21 -90 -27 -16 -6 -42 -13 -57 -15 -15 -3 -32 -11 -38 -18 -31 -37 -46
26 -16 65 11 15 35 63 63 130 8 19 24 52 34 73 21 40 18 77 -7 77 -8 0 -14 -3
-14 -7 0 -7 -99 -79 -148 -108 -9 -5 -36 -22 -60 -37 -24 -16 -45 -28 -48 -28
-2 0 -23 -12 -47 -27 -59 -39 -80 -51 -97 -59 -8 -4 -51 -31 -95 -59 -44 -29
-113 -71 -152 -95 -40 -23 -73 -46 -73 -51 0 -5 -5 -9 -11 -9 -7 0 -17 -7 -24
-17 -7 -9 -17 -13 -25 -8 -15 9 -6 91 16 143 8 19 14 53 14 76 1 22 7 52 15
66 8 14 15 36 15 50 0 14 9 54 20 88 11 35 18 68 14 73 -11 19 -33 8 -65 -33
-19 -24 -36 -45 -39 -48 -14 -12 -328 -348 -350 -374 -14 -16 -33 -36 -42 -45
-10 -8 -18 -21 -18 -28 0 -22 -30 -14 -40 10 -5 12 -14 81 -20 152 -15 192
-22 229 -42 233 -9 2 -22 -6 -28 -18 -11 -20 -124 -152 -180 -210 -22 -23 -49
-53 -161 -183 -44 -52 -50 -33 -42 149 l6 164 -25 0 c-18 0 -34 -13 -59 -47
-18 -26 -40 -54 -49 -63 -35 -35 -147 -168 -174 -206 -32 -44 -83 -77 -71 -46
4 9 10 37 15 62 4 25 13 60 19 78 6 17 16 47 22 65 32 91 19 113 -42 73 -22
-15 -50 -31 -62 -36 -21 -10 -29 -14 -72 -38 -11 -7 -35 -19 -54 -27 -26 -12
-31 -18 -22 -29 9 -11 5 -11 -24 -2 -19 6 -35 17 -35 23 0 7 3 13 8 13 4 0 30
28 57 62 28 34 71 84 98 112 45 48 66 90 54 103 -10 10 -89 22 -144 23 -28 0
-64 5 -80 11 -15 6 -58 14 -96 17 -64 7 -85 19 -55 33 47 23 70 29 128 32 67
4 210 30 228 41 9 6 88 20 205 36 32 4 61 10 64 13 11 12 -9 46 -42 68 -18 13
-77 59 -130 103 -109 88 -114 109 -23 88 29 -7 119 -17 199 -22 81 -5 166 -14
190 -19 24 -6 76 -11 114 -11 39 0 102 -5 140 -11 106 -16 119 -16 123 2 2 12
-87 141 -118 169 -3 3 -16 21 -30 40 -13 19 -40 52 -60 73 -40 44 -52 68 -40
86 6 10 13 10 32 -3 14 -9 61 -21 104 -26 44 -5 95 -14 114 -20 19 -5 55 -10
79 -10 25 0 70 -6 100 -14 70 -18 188 -35 311 -45 52 -4 102 -10 110 -14 24
-11 183 -37 192 -31 16 10 8 42 -14 57 -13 8 -76 67 -140 131 l-118 116 36 15
c20 8 44 15 53 15 14 -1 14 -2 -1 -14 -21 -15 -23 -26 -7 -26 12 0 89 -33 119
-51 8 -5 22 -12 30 -15 24 -9 72 -29 110 -47 19 -9 47 -19 63 -23 15 -3 30
-10 33 -15 3 -5 15 -9 28 -9 12 0 31 -7 42 -15 10 -8 29 -15 40 -15 12 0 27
-7 34 -15 7 -8 18 -15 24 -15 13 0 124 -44 133 -54 3 -3 16 -6 28 -6 12 0 30
-7 41 -15 10 -8 26 -15 34 -15 8 0 42 -14 75 -30 54 -27 105 -39 105 -25 0 10
-74 146 -82 151 -4 3 -8 13 -8 23 0 10 -7 24 -15 31 -19 16 -20 60 -1 60 8 0
34 -13 58 -28 24 -16 59 -37 78 -48 19 -10 42 -24 50 -30 15 -11 59 -36 192
-107 37 -20 86 -48 108 -62 22 -14 44 -25 48 -25 5 0 20 -9 34 -19 13 -11 36
-23 51 -26 23 -6 27 -3 32 22 8 37 20 58 33 58 6 0 39 -38 74 -85 63 -86 171
-197 313 -325 43 -38 89 -86 103 -107 28 -43 72 -54 72 -19 0 11 -5 23 -11 27
-6 3 -8 16 -5 29 6 24 -45 112 -71 122 -7 3 -13 14 -13 25 0 15 -5 18 -20 13
-23 -7 -24 -6 -10 29 6 17 17 26 32 27 15 0 18 3 8 6 -8 3 -25 15 -37 25 -16
15 -29 19 -49 14 -33 -9 -64 20 -64 59 0 25 14 34 25 15 3 -5 15 -10 26 -10
10 0 19 -4 19 -9 0 -5 9 -13 21 -16 12 -4 30 -16 40 -26 23 -23 45 -24 57 -3
7 13 10 9 16 -17 5 -26 2 -37 -11 -47 -16 -11 -14 -15 17 -42 66 -55 90 -28
50 55 -11 22 -19 48 -20 57 0 9 -6 29 -14 45 -14 28 -29 79 -46 158 -14 67
-32 128 -46 162 -8 17 -14 39 -14 50 0 10 -7 27 -15 37 -8 11 -15 29 -15 41 0
11 -9 38 -20 60 -11 22 -20 45 -20 53 0 9 -7 11 -20 7 -15 -5 -20 -2 -20 13 0
15 7 18 35 18 19 -1 37 -7 40 -13 2 -7 11 -13 19 -13 7 0 16 -7 20 -15 3 -8
10 -15 15 -15 12 0 97 -55 127 -82 31 -28 58 -14 50 26 -4 17 -11 96 -16 176
-5 80 -13 163 -19 185 -6 22 -11 57 -11 78 0 46 17 48 69 9 20 -16 44 -32 55
-35 10 -4 56 -32 103 -63 46 -31 90 -53 97 -51 16 6 34 119 40 257 3 58 10
121 16 140 5 19 10 81 10 138 0 126 6 131 87 72 107 -77 257 -169 266 -163 6
4 8 106 4 275 -5 259 -5 268 14 268 11 0 19 -7 19 -17 0 -10 7 -31 15 -47 8
-15 15 -32 15 -37 0 -5 14 -38 30 -72 17 -35 30 -68 30 -74 0 -13 33 -43 48
-43 6 0 14 10 18 23 4 12 24 48 45 80 22 32 39 62 39 66 0 4 5 12 12 19 7 7
27 38 44 70 17 31 39 58 48 60 14 3 16 -10 16 -104 0 -59 5 -148 11 -197 12
-94 26 -113 57 -83 27 26 150 116 159 116 5 0 23 14 41 30 18 17 37 30 42 30
5 0 13 6 17 14 4 8 20 18 36 21 23 6 27 4 27 -13 0 -11 -7 -22 -15 -26 -8 -3
-15 -12 -15 -20 0 -8 -4 -16 -8 -18 -4 -1 -34 -37 -67 -78 -33 -41 -65 -81
-72 -88 -7 -7 -13 -19 -13 -26 0 -31 27 -35 183 -32 113 2 157 0 157 -9 0 -12
-53 -55 -67 -55 -16 0 -173 -83 -303 -160 -8 -5 -49 -26 -90 -47 -41 -21 -81
-44 -88 -50 -7 -7 -20 -13 -29 -13 -23 0 -73 -39 -73 -57 0 -13 13 -14 98 -8
53 4 122 11 152 16 67 11 130 12 130 2 -1 -23 -73 -73 -106 -73 -7 0 -25 -6
-41 -14 -15 -8 -48 -22 -73 -31 -25 -9 -60 -23 -78 -31 -58 -24 -166 -72 -243
-108 -31 -14 -63 -26 -71 -26 -9 0 -21 -7 -28 -15 -7 -8 -20 -15 -29 -15 -9 0
-25 -7 -35 -15 -11 -8 -29 -15 -41 -15 -12 0 -26 -5 -32 -11 -7 -7 -40 -21
-75 -33 -55 -18 -63 -24 -63 -46 l0 -25 208 -3 c165 -2 207 -5 207 -16 0 -11
-89 -125 -206 -261 -38 -45 -46 -80 -15 -70 10 3 24 -1 31 -10 11 -13 -1 -29
-81 -108 -53 -51 -112 -121 -134 -157 -21 -36 -43 -66 -47 -68 -4 -2 -8 -17
-8 -33 0 -51 41 -32 75 36 31 64 55 95 137 181 43 44 84 87 90 96 7 9 69 58
138 109 69 51 148 112 176 136 28 24 56 43 63 43 12 0 14 -56 5 -137 -8 -60
-24 -62 -24 -3 0 21 -5 42 -10 45 -6 4 -28 -7 -49 -24 -21 -17 -41 -31 -44
-31 -13 0 -156 -101 -247 -175 -72 -58 -190 -189 -190 -210 0 -8 -4 -16 -9
-20 -17 -10 -63 -116 -57 -131 13 -33 66 -1 66 39 1 24 23 74 55 122 44 67
128 144 279 257 190 141 199 142 165 10 -12 -45 -19 -88 -15 -97 9 -24 39 -18
87 18 51 37 78 54 99 64 23 11 164 96 170 103 3 3 25 16 50 29 41 21 177 106
242 152 50 35 55 23 64 -154 8 -152 10 -162 29 -165 12 -2 31 5 43 15 30 25
199 144 387 273 36 25 112 79 169 120 119 87 142 101 150 93 10 -10 7 -48 -4
-59 -6 -6 -15 -56 -21 -110 -5 -54 -14 -112 -18 -129 -5 -16 -12 -60 -15 -98
-6 -57 -4 -68 10 -74 9 -3 24 -1 33 5 9 7 27 18 41 24 14 7 43 25 64 40 21 16
45 28 53 28 7 0 13 4 13 9 0 5 12 14 28 20 39 14 173 90 189 107 8 8 18 14 23
14 5 0 43 20 84 45 42 25 79 45 82 45 3 0 10 5 17 10 7 6 33 26 59 45 38 29
47 32 52 19 4 -9 -7 -45 -24 -80 -16 -35 -30 -67 -30 -72 0 -10 -46 -121 -54
-129 -9 -10 -7 -63 3 -63 5 0 22 7 37 15 16 8 36 15 45 15 8 0 19 4 25 9 5 6
27 14 49 20 159 40 293 83 337 106 14 8 35 15 46 15 11 0 25 7 32 15 15 18 70
20 69 3 0 -7 -19 -28 -42 -46 -23 -19 -105 -93 -181 -165 -77 -73 -153 -144
-170 -159 -29 -25 -30 -28 -14 -44 14 -14 47 -18 185 -25 166 -7 223 -16 296
-44 20 -8 53 -15 72 -15 47 0 52 -16 7 -24 -58 -9 -87 -7 -118 9 -33 17 -112
19 -165 5 -19 -5 -73 -14 -120 -20 -46 -5 -100 -12 -119 -15 -19 -3 -54 -8
-77 -11 -28 -3 -43 -10 -43 -19 0 -8 66 -65 148 -125 81 -61 154 -122 162
-135 19 -33 4 -47 -46 -43 l-39 4 33 8 c40 11 41 25 2 33 -16 3 -30 9 -30 14
0 4 -10 11 -22 14 -13 4 -51 20 -86 36 -34 16 -66 29 -71 29 -5 0 -30 9 -57
21 -27 11 -60 25 -74 31 -14 5 -38 16 -55 23 -16 7 -55 23 -85 34 -57 23 -67
27 -138 56 -26 11 -46 15 -51 9 -9 -9 8 -109 21 -130 4 -6 10 -31 14 -55 8
-54 38 -174 53 -212 26 -68 8 -92 -47 -63 -25 13 -59 26 -157 63 -47 18 -123
50 -147 64 -10 5 -23 9 -29 9 -6 0 -25 6 -42 14 -18 8 -61 24 -97 36 -36 11
-81 28 -100 36 -19 9 -44 19 -55 24 -11 5 -58 23 -105 40 -47 17 -104 40 -128
51 -50 22 -82 24 -82 5 0 -26 284 -446 302 -446 11 0 10 -48 -1 -55 -5 -3 -13
0 -16 5 -4 6 -17 16 -28 21 -12 5 -49 25 -82 43 -33 19 -130 70 -215 113 -85
44 -186 96 -225 115 -38 20 -99 50 -135 68 -36 17 -126 62 -200 100 -199 103
-205 90 -55 -107 58 -76 115 -151 128 -167 12 -15 26 -37 31 -47 5 -11 12 -19
16 -19 4 0 13 -14 20 -30 15 -37 0 -61 -39 -59 l-26 1 28 11 c35 14 34 24 -3
32 -16 4 -30 10 -30 15 0 4 -12 13 -27 19 -16 6 -50 23 -78 37 -27 14 -63 31
-80 38 -16 7 -59 27 -95 43 -36 17 -96 45 -135 63 -141 65 -155 71 -160 81 -8
12 -55 12 -55 0 0 -5 8 -23 17 -40 17 -29 17 -31 -2 -45 -17 -12 -18 -16 -5
-31 8 -9 23 -21 35 -25 23 -9 422 -275 435 -290 3 -4 28 -21 55 -40 55 -37
279 -207 392 -298 39 -31 100 -79 135 -106 35 -27 68 -54 73 -60 6 -6 62 -56
125 -111 256 -222 686 -651 891 -890 251 -292 344 -406 459 -560 49 -66 95
-128 102 -137 7 -9 20 -26 28 -38 8 -12 50 -70 93 -128 115 -157 123 -169 179
-257 28 -44 76 -118 106 -165 30 -47 75 -116 100 -155 24 -38 53 -82 63 -97
11 -15 19 -29 19 -32 0 -2 17 -31 38 -63 21 -32 49 -78 61 -103 30 -59 79
-146 106 -190 11 -19 33 -57 47 -85 14 -27 40 -75 57 -105 18 -30 38 -69 46
-86 17 -39 40 -58 60 -50 22 8 18 30 -14 78 -16 24 -52 88 -81 143 -30 55 -56
102 -59 105 -3 3 -14 21 -24 40 -35 65 -51 95 -99 176 -27 45 -48 85 -48 88 0
6 -110 180 -127 201 -5 6 -19 28 -33 50 -30 50 -205 323 -242 379 -7 10 -67
91 -133 181 -66 90 -127 173 -135 185 -27 40 -173 235 -180 240 -4 3 -76 88
-160 190 -84 102 -158 190 -164 195 -6 6 -29 32 -51 60 -109 135 -648 674
-825 825 -36 30 -69 60 -75 66 -5 6 -55 48 -110 93 -55 45 -111 92 -125 104
-14 11 -53 42 -88 69 -34 26 -74 59 -89 73 -15 14 -31 25 -34 25 -3 0 -15 8
-27 18 -11 9 -31 25 -44 34 -13 9 -51 37 -86 63 -103 75 -312 215 -321 215 -5
0 -11 3 -13 8 -3 8 -55 45 -78 55 -8 4 -28 16 -45 27 -16 11 -40 24 -52 30
-13 5 -23 14 -23 20 0 15 36 12 50 -5 7 -8 18 -15 25 -15 8 0 26 -6 42 -14 48
-25 122 -61 293 -146 91 -45 172 -86 180 -90 8 -5 44 -23 80 -41 36 -17 93
-45 127 -61 33 -17 68 -28 77 -25 16 6 23 47 8 47 -4 0 -24 21 -45 48 -89 114
-186 229 -244 289 -18 19 -33 38 -33 43 0 6 -4 10 -10 10 -5 0 -10 7 -10 15 0
18 31 20 47 4 16 -16 62 -40 493 -254 206 -102 382 -190 390 -196 8 -5 22 -12
30 -16 8 -3 26 -15 39 -25 25 -19 56 -24 65 -9 3 4 -12 33 -32 62 -21 30 -63
95 -92 144 -30 50 -57 92 -60 95 -4 3 -13 16 -20 30 -7 14 -35 58 -61 98 -50
73 -57 92 -39 92 12 0 125 -45 152 -60 10 -6 26 -10 36 -10 9 0 26 -6 37 -13
11 -8 49 -24 85 -37 36 -13 70 -27 75 -31 6 -4 27 -10 48 -14 20 -4 40 -11 43
-16 3 -5 12 -9 21 -9 14 0 49 -13 118 -45 17 -8 42 -17 58 -21 15 -3 30 -10
33 -15 3 -5 12 -9 21 -9 8 0 29 -6 46 -14 119 -51 121 -50 113 16 -4 29 -11
57 -15 63 -5 5 -11 28 -15 50 -4 22 -11 51 -16 65 -5 14 -18 59 -30 100 -12
41 -28 87 -35 101 -8 14 -12 29 -8 33 11 10 43 7 71 -8 44 -22 102 -46 113
-46 6 0 25 -6 42 -14 66 -30 217 -86 231 -86 8 0 18 -4 21 -10 3 -6 16 -10 29
-10 12 0 31 -7 42 -15 10 -8 27 -15 37 -15 17 0 91 -29 129 -50 10 -6 23 -10
29 -10 11 0 38 -11 125 -50 31 -14 44 -16 53 -7 19 19 12 44 -21 72 -18 15
-94 85 -168 155 -74 70 -150 139 -167 154 -18 15 -33 36 -33 46 0 16 10 19 68
23 60 4 120 14 292 47 74 14 217 38 260 44 19 3 55 9 80 15 25 5 66 10 91 11
33 0 51 6 64 20 27 30 7 44 -73 51 -248 24 -304 30 -357 38 -33 6 -130 17
-215 27 -85 9 -158 20 -162 23 -4 3 107 121 247 261 140 140 255 262 255 271
0 33 -20 38 -78 18 -74 -25 -328 -107 -367 -118 -16 -5 -64 -19 -105 -31 -41
-12 -89 -28 -107 -36 -17 -8 -37 -14 -45 -14 -7 0 -22 -7 -32 -15 -22 -17 -52
-20 -60 -6 -3 5 9 53 28 107 62 186 86 266 80 275 -10 17 -30 8 -129 -56 -55
-35 -105 -65 -112 -65 -6 0 -13 -4 -15 -8 -1 -4 -34 -25 -72 -45 -37 -21 -74
-44 -82 -51 -7 -8 -33 -24 -56 -35 -54 -27 -63 -33 -171 -103 -49 -32 -92 -58
-96 -58 -5 0 -14 -7 -21 -15 -7 -8 -19 -15 -28 -15 -12 0 -14 10 -9 59 4 32
11 78 16 102 6 24 15 87 21 139 6 52 14 119 18 147 13 82 -5 92 -69 40 -40
-32 -174 -131 -274 -202 -38 -27 -76 -56 -84 -63 -8 -7 -26 -21 -40 -30 -48
-30 -256 -189 -270 -205 -7 -10 -23 -17 -36 -17 -21 0 -22 6 -33 113 -17 172
-28 227 -43 227 -6 0 -64 -35 -129 -77 -202 -132 -304 -197 -340 -216 -19 -11
-63 -42 -98 -69 -34 -27 -67 -46 -73 -42 -12 7 -5 101 11 151 18 58 21 123 5
129 -16 7 -17 6 -185 -131 -184 -151 -218 -176 -224 -167 -6 10 35 62 110 142
29 30 67 72 85 94 19 21 46 50 60 65 14 14 40 43 58 63 29 34 30 38 14 46 -26
13 -186 -4 -223 -23 -37 -19 -105 -17 -105 4 0 13 34 34 105 63 19 8 52 23 73
32 21 9 42 16 48 16 8 0 105 42 160 70 9 5 61 27 115 50 54 23 124 54 154 67
30 14 64 29 75 34 11 4 58 24 104 43 47 20 90 36 97 36 7 0 20 10 28 22 30 42
7 48 -144 38 -74 -5 -151 -14 -170 -20 -42 -12 -97 -13 -104 -2 -5 9 46 52 61
52 9 0 302 147 318 160 24 19 224 123 268 139 16 6 27 17 24 24 -4 13 -249 35
-409 36 -48 1 -89 5 -93 10 -4 8 57 98 115 168 6 7 10 15 10 18 0 4 36 54 80
111 44 58 80 114 80 125 0 34 -29 33 -83 -4 -64 -43 -183 -115 -211 -128 -12
-5 -34 -18 -51 -29 -16 -11 -39 -24 -50 -30 -11 -6 -33 -19 -50 -30 -58 -38
-86 -51 -95 -45 -6 4 -10 59 -10 124 0 204 -11 361 -26 361 -7 0 -18 -6 -24
-12 -15 -18 -160 -240 -160 -246 0 -2 -13 -21 -30 -42 -16 -21 -30 -42 -30
-47 0 -12 -33 -43 -46 -43 -5 0 -19 21 -32 48 -12 26 -42 83 -67 127 -25 44
-66 122 -90 173 -43 87 -57 104 -69 83z m66 -178 c23 -21 23 -45 -1 -60 -16
-10 -20 -9 -25 10 -8 30 -8 67 1 67 3 0 15 -7 25 -17z m448 -18 c0 -14 -4 -25
-9 -25 -5 0 -16 -3 -25 -6 -14 -5 -14 -3 0 25 19 37 34 40 34 6z m24 -185 l-8
-75 -8 80 c-5 44 -6 91 -2 105 l7 25 9 -30 c5 -16 6 -64 2 -105z m476 33 c0
-5 -9 -19 -20 -33 -16 -21 -21 -23 -32 -12 -11 11 -9 17 11 33 24 20 41 25 41
12z m-803 -89 c3 -9 19 -30 34 -47 29 -32 37 -57 19 -57 -17 0 -50 39 -50 59
0 10 -7 21 -15 25 -17 6 -21 36 -5 36 6 0 13 -7 17 -16z m453 -110 c0 -11 -50
-54 -62 -54 -6 0 -17 -8 -24 -17 -10 -14 -15 -15 -25 -6 -20 20 -3 40 39 47
22 3 42 13 46 21 5 15 26 21 26 9z m-925 -52 l23 -18 -29 -11 c-28 -11 -29
-13 -29 -80 0 -88 -10 -149 -21 -131 -12 19 -11 176 2 221 11 42 21 45 54 19z
m140 -73 c4 -5 17 -14 28 -20 12 -5 29 -13 37 -19 8 -6 36 -19 63 -30 27 -11
47 -26 47 -35 0 -21 -41 -19 -71 3 -13 9 -32 22 -41 27 -57 35 -107 71 -108
78 0 11 38 8 45 -4z m1305 -89 c0 -11 -64 -40 -88 -40 -12 0 -10 6 8 25 23 25
80 36 80 15z m-110 -59 c0 -5 -7 -12 -16 -15 -22 -9 -24 -8 -24 9 0 8 9 15 20
15 11 0 20 -4 20 -9z m-52 -32 c-2 -6 -8 -10 -13 -10 -5 0 -11 4 -13 10 -2 6
4 11 13 11 9 0 15 -5 13 -11z m-1359 -191 l-2 -113 -9 70 c-8 63 -4 155 8 155
2 0 3 -51 3 -112z m-340 -17 c9 -6 10 -11 2 -15 -6 -4 -11 -28 -12 -54 0 -26
-4 -56 -8 -67 -7 -16 -9 -14 -14 14 -9 43 -9 116 0 124 8 9 15 9 32 -2z m71
-41 c0 -5 -6 -10 -14 -10 -8 0 -18 5 -21 10 -3 6 3 10 14 10 12 0 21 -4 21
-10z m1180 4 c0 -18 -23 -44 -40 -44 -31 0 -32 18 -3 33 31 17 43 20 43 11z
m-1146 -20 c18 -7 12 -24 -10 -24 -8 0 -14 7 -14 15 0 17 2 18 24 9z m1486
-17 c0 -20 -21 -37 -46 -37 -26 0 -36 11 -26 26 15 23 72 32 72 11z m-1270
-90 c0 -35 -8 -37 -45 -14 -45 29 -44 37 5 37 35 0 40 -3 40 -23z m-313 -234
c-2 -21 -4 -4 -4 37 0 41 2 58 4 38 2 -21 2 -55 0 -75z m-257 17 c0 -16 -4
-30 -9 -30 -12 0 -24 37 -16 50 12 20 25 10 25 -20z m2880 -22 c0 -68 -10
-128 -21 -128 -5 0 -9 24 -9 53 0 30 -3 57 -6 60 -4 4 -23 -6 -43 -21 -20 -16
-61 -43 -91 -62 -30 -19 -81 -53 -112 -77 -31 -24 -61 -43 -66 -43 -6 0 -12
-3 -14 -7 -4 -11 -65 -53 -77 -53 -5 0 -11 -7 -15 -15 -3 -8 -12 -15 -20 -15
-7 0 -16 -7 -20 -15 -3 -8 -11 -15 -17 -15 -7 0 -21 -7 -31 -17 -28 -25 -34
-7 -7 22 13 13 27 25 31 25 5 0 106 73 225 163 314 234 293 223 293 145z
m-4901 2 c24 -11 51 -20 60 -20 9 -1 1 -7 -16 -15 -29 -12 -45 -35 -25 -35 12
0 82 -68 82 -79 0 -6 7 -11 15 -11 8 0 15 -7 15 -15 0 -8 -3 -15 -6 -15 -12 0
-204 197 -197 203 10 11 25 8 72 -13z m5621 -17 c-1 -25 -14 -53 -26 -53 -7 0
-36 -13 -64 -30 -28 -16 -57 -30 -65 -30 -8 0 -17 -5 -20 -11 -4 -5 -17 -15
-28 -20 -12 -5 -49 -25 -82 -44 -33 -19 -67 -38 -75 -42 -8 -3 -33 -18 -55
-32 -60 -38 -75 -47 -130 -76 -27 -14 -63 -35 -80 -45 -16 -11 -39 -24 -50
-30 -11 -6 -38 -21 -60 -34 -47 -28 -67 -24 -63 13 3 24 6 26 44 23 30 -2 43
1 47 12 4 9 15 16 25 16 11 0 25 7 32 15 7 8 21 15 31 15 11 0 19 4 19 8 0 5
10 14 23 21 12 6 36 20 52 31 17 11 39 24 50 30 11 6 29 16 40 23 11 7 46 28
79 47 32 19 70 43 85 52 14 10 33 21 41 25 8 3 33 18 55 32 64 41 79 50 102
60 11 5 24 15 28 20 7 12 45 15 45 4z m-5496 -29 c22 -9 20 -24 -3 -24 -21 0
-34 13 -24 24 8 7 8 7 27 0z m804 -57 c20 -12 58 -33 85 -45 26 -13 47 -27 47
-32 0 -4 11 -11 25 -14 14 -4 25 -11 25 -16 0 -16 -47 -11 -54 5 -3 8 -13 15
-22 15 -9 0 -27 9 -41 20 -51 40 -71 13 -33 -45 11 -16 20 -38 20 -47 0 -10 5
-18 10 -18 12 0 13 -47 1 -54 -5 -3 -14 6 -20 22 -6 15 -15 34 -20 42 -5 8
-12 22 -15 30 -3 8 -10 22 -15 30 -5 8 -12 22 -15 30 -3 8 -10 22 -14 30 -18
30 -32 60 -32 65 0 12 33 3 68 -18z m2012 -6 c0 -13 -28 -22 -35 -11 -3 4 1
11 7 13 20 8 28 8 28 -2z m368 -21 c1 -9 -22 -42 -53 -74 -34 -36 -55 -52 -55
-42 0 9 5 16 10 16 6 0 10 7 10 15 0 7 7 18 16 23 25 14 14 65 -16 73 -17 5
-6 7 30 6 40 -2 56 -6 58 -17z m782 -40 c0 -33 -10 -43 -30 -30 -9 6 -20 4
-30 -4 -8 -7 -42 -28 -75 -46 -33 -18 -67 -38 -75 -45 -8 -6 -22 -15 -30 -19
-8 -3 -28 -15 -45 -26 -16 -11 -37 -23 -45 -27 -8 -3 -33 -18 -55 -32 -64 -41
-79 -50 -102 -60 -13 -6 -23 -15 -23 -21 0 -5 -9 -10 -19 -10 -11 0 -23 -5
-26 -11 -4 -5 -17 -15 -28 -20 -40 -18 -70 -37 -77 -49 -9 -14 -30 -5 -30 13
0 13 45 37 67 37 7 0 13 4 13 9 0 5 10 13 22 17 12 3 28 13 36 20 7 8 20 14
28 14 8 0 14 5 14 10 0 6 10 15 23 20 12 6 36 19 52 30 17 11 37 23 45 27 17
9 211 135 252 164 15 10 30 19 33 19 3 0 24 13 46 30 47 34 59 31 59 -10z
m1496 -7 c-10 -26 -29 1 -21 28 7 20 8 21 17 5 5 -9 7 -24 4 -33z m664 15 c0
-7 -63 -78 -141 -158 -200 -206 -309 -326 -309 -339 0 -7 23 -11 63 -11 79 0
109 -16 46 -24 -66 -10 -163 5 -167 26 -2 9 24 42 63 79 144 138 265 260 265
269 0 6 6 10 14 10 8 0 16 7 20 15 3 8 12 15 21 15 8 0 15 4 15 9 0 5 3 16 6
24 8 22 -25 30 -52 12 -13 -8 -38 -15 -56 -15 -18 -1 -44 -7 -58 -15 -14 -8
-36 -15 -50 -15 -14 0 -34 -7 -44 -15 -11 -8 -31 -15 -45 -15 -14 -1 -37 -7
-51 -15 -14 -8 -34 -14 -45 -15 -11 0 -33 -7 -49 -15 -15 -8 -40 -15 -55 -15
-15 0 -32 -5 -38 -11 -6 -6 -29 -15 -50 -19 -21 -4 -47 -11 -57 -15 -17 -7
-18 -5 -12 21 4 16 11 46 15 68 5 21 13 41 19 45 6 3 12 22 14 41 2 19 8 34
13 33 17 -4 17 -43 0 -69 -20 -31 -17 -90 5 -87 34 5 107 26 132 39 14 8 35
14 47 14 11 0 35 6 53 14 54 22 132 46 153 46 11 1 29 7 39 15 11 8 30 15 43
15 12 0 37 6 55 14 34 15 157 55 171 56 4 0 7 -6 7 -12z m-7012 -34 c13 -4 22
-14 22 -26 0 -24 37 -88 51 -88 5 0 9 -5 9 -10 0 -6 40 -64 90 -130 49 -65 86
-121 82 -124 -10 -6 -191 0 -198 7 -9 9 63 20 89 14 12 -4 28 -2 36 2 11 7 3
24 -35 77 -27 38 -52 71 -56 72 -5 2 -8 10 -8 17 0 7 -3 15 -8 17 -4 2 -25 28
-47 58 -22 30 -48 63 -57 72 -19 19 -22 31 -11 41 8 8 12 8 41 1z m5624 -116
c-2 -49 -8 -88 -13 -88 -11 0 -12 193 -2 204 14 13 19 -29 15 -116z m-3702 72
c0 -13 -11 -13 -30 0 -12 8 -11 10 8 10 12 0 22 -4 22 -10z m2950 -22 c6 -83
22 -183 31 -194 6 -8 21 -14 33 -15 21 0 21 0 -1 -9 -13 -5 -23 -14 -23 -20 0
-5 -11 -10 -24 -10 -19 0 -24 6 -30 38 -10 60 -7 212 4 212 6 0 10 -1 10 -2z
m-3351 -27 c9 -6 10 -11 2 -15 -15 -10 -53 3 -46 15 8 11 26 11 44 0z m506 -2
c4 -6 5 -13 2 -16 -8 -7 -47 7 -47 18 0 13 37 11 45 -2z m-441 -25 c24 -9 19
-24 -8 -24 -26 0 -40 12 -29 24 8 8 17 8 37 0z m497 -10 c11 -14 10 -15 -11
-12 -13 1 -25 9 -28 16 -5 17 23 15 39 -4z m351 -6 c8 -7 44 -51 78 -98 35
-47 67 -87 70 -90 3 -3 23 -27 45 -55 21 -27 44 -54 50 -60 25 -23 107 -137
102 -142 -9 -8 -74 56 -130 127 -29 36 -57 70 -63 75 -6 6 -26 30 -44 55 -82
109 -120 132 -120 72 0 -15 -9 -35 -20 -45 -23 -19 -40 -22 -40 -7 0 6 -11 10
-25 10 -14 0 -28 7 -31 15 -4 8 -12 15 -19 15 -8 0 -20 6 -27 13 -7 7 -21 16
-30 20 -19 7 -25 27 -9 27 5 0 16 -7 25 -15 8 -8 22 -15 31 -15 8 0 18 -6 21
-14 8 -20 61 -31 79 -16 9 7 15 30 15 54 0 47 9 86 19 86 4 0 14 -6 23 -12z
m-774 -14 c32 -9 27 -24 -7 -24 -30 0 -46 12 -34 24 8 7 12 7 41 0z m464 -16
c-12 -12 -35 -1 -27 12 3 5 13 6 21 3 10 -4 12 -9 6 -15z m-334 -30 c3 -27
-11 -38 -23 -19 -3 5 -19 12 -35 16 -35 8 -39 22 -7 28 46 9 62 3 65 -25z
m3242 -15 c0 -12 -46 -53 -59 -53 -18 0 -13 20 7 27 9 4 21 12 25 20 9 14 27
18 27 6z m-5512 -90 c102 -8 89 -23 -20 -23 -43 0 -78 -3 -78 -7 1 -11 37 -53
45 -53 3 0 18 -13 33 -28 15 -15 47 -44 72 -64 80 -64 121 -104 114 -111 -18
-17 -45 -3 -106 56 -36 34 -106 98 -157 141 -50 43 -91 83 -91 87 0 11 73 11
188 2z m350 -40 c-27 -2 -69 -2 -95 0 -27 2 -5 3 47 3 52 0 74 -1 48 -3z
m7055 -170 c59 -9 24 -23 -60 -23 -98 0 -96 22 2 28 11 1 37 -1 58 -5z m286
-39 c11 -10 -24 -32 -59 -38 -67 -11 -119 23 -67 44 19 8 115 3 126 -6z m-359
-83 c0 -18 -133 -30 -144 -12 -4 5 0 12 6 14 22 9 138 7 138 -2z m-7402 -8
c-10 -2 -28 -2 -40 0 -13 2 -5 4 17 4 22 1 32 -1 23 -4z m7232 -22 c0 -14 -28
-21 -85 -21 -35 0 -59 -5 -69 -16 -9 -8 -16 -17 -16 -19 0 -8 172 -174 186
-179 19 -7 18 -26 -1 -26 -8 0 -15 4 -15 8 0 5 -28 29 -62 54 -35 25 -74 57
-88 69 -14 13 -43 38 -64 56 -43 35 -41 53 8 53 17 0 36 4 42 9 13 13 42 19
107 20 31 0 57 -3 57 -8z m-7355 -11 c-3 -5 -21 -10 -40 -10 -19 0 -37 5 -40
10 -4 6 12 10 40 10 28 0 44 -4 40 -10z m-135 -30 c0 -11 -25 -14 -77 -11 -46
3 -101 -17 -114 -41 -9 -16 -18 -19 -44 -15 -18 3 -46 14 -61 23 l-27 18 24 7
c13 4 50 7 81 8 31 1 60 6 63 11 3 6 40 10 81 10 43 0 74 -4 74 -10z m6862
-37 c15 -3 33 -11 39 -19 6 -8 21 -14 32 -14 11 0 28 -6 36 -14 9 -7 30 -18
46 -24 27 -9 28 -11 11 -18 -12 -5 -30 -1 -48 9 -17 9 -38 17 -49 17 -11 0
-31 7 -44 16 -16 11 -36 14 -55 11 -23 -5 -32 -2 -40 13 -14 27 -3 43 24 35
11 -4 33 -9 48 -12z m-6959 -50 c-13 -2 -33 -2 -45 0 -13 2 -3 4 22 4 25 0 35
-2 23 -4z m2500 -10 c-7 -3 -13 -19 -13 -38 0 -18 -7 -38 -15 -45 -8 -7 -15
-23 -15 -35 0 -12 -7 -28 -15 -35 -8 -7 -15 -21 -15 -32 0 -10 -7 -30 -16 -43
-20 -31 -5 -54 35 -56 22 -1 20 -2 -9 -8 -19 -4 -45 -13 -57 -19 -52 -29 -57
-1 -13 81 17 31 30 65 30 76 0 11 3 21 8 23 17 7 52 69 52 91 0 23 39 61 50
50 3 -3 -1 -8 -7 -10z m4421 -83 c-4 -13 -6 -13 -14 0 -12 18 -13 64 -3 74 10
9 24 -54 17 -74z m-5135 38 c-1 -31 -1 -31 -8 -8 -5 14 -6 28 -4 33 9 15 13 6
12 -25z m-1448 -8 c24 -13 24 -25 2 -49 -40 -41 -73 -84 -73 -92 0 -5 -7 -12
-15 -15 -8 -4 -15 -12 -15 -20 0 -7 -6 -17 -13 -21 -8 -4 -16 -16 -20 -25 -3
-10 -11 -18 -17 -18 -16 0 -12 30 5 36 8 4 15 11 15 18 0 6 8 19 18 28 44 42
87 121 78 144 -3 7 -22 15 -43 17 -35 3 -34 4 10 5 27 1 57 -3 68 -8z m4994
-4 c21 -8 41 -19 43 -25 2 -6 14 -11 27 -11 13 0 28 -6 32 -14 4 -8 17 -15 27
-17 11 -2 21 -10 24 -16 6 -19 -47 -16 -54 2 -4 8 -13 15 -22 15 -8 0 -24 7
-34 16 -15 14 -20 15 -34 3 -14 -12 -19 -10 -40 14 -41 47 -33 55 31 33z m772
-3 c18 -3 38 -11 44 -19 6 -8 22 -14 35 -14 12 0 29 -7 38 -15 8 -8 24 -15 35
-15 11 0 26 -6 33 -14 8 -7 29 -17 46 -21 43 -9 42 -30 0 -21 -18 4 -34 11
-36 16 -2 6 -17 10 -34 10 -26 0 -55 11 -108 41 -33 19 -42 21 -52 11 -7 -7
-2 -22 16 -48 14 -21 26 -44 26 -51 0 -7 4 -13 9 -13 5 0 14 -13 21 -30 7 -16
16 -30 21 -30 5 0 9 -8 9 -18 0 -10 5 -23 11 -29 14 -14 36 -52 45 -75 3 -10
10 -18 15 -18 5 0 14 -10 19 -22 6 -13 19 -36 30 -53 31 -48 53 -95 47 -101
-10 -11 -58 29 -52 43 3 8 -8 31 -23 51 -16 21 -32 45 -35 55 -4 9 -11 17 -17
17 -5 0 -10 11 -10 24 0 13 -7 29 -15 36 -8 7 -15 19 -15 26 0 8 -5 14 -10 14
-6 0 -13 8 -17 18 -3 9 -18 33 -33 52 -15 19 -30 42 -33 50 -4 8 -16 29 -27
45 -11 17 -23 37 -27 45 -4 8 -13 21 -20 28 -22 23 -16 45 10 37 12 -4 36 -9
54 -12z m1101 10 c-10 -2 -26 -2 -35 0 -10 3 -2 5 17 5 19 0 27 -2 18 -5z m97
-24 c4 -6 5 -13 2 -16 -8 -8 -67 7 -67 18 0 13 57 11 65 -2z m73 -37 c3 -10
-4 -13 -24 -10 -15 2 -29 9 -32 16 -3 10 4 13 24 10 15 -2 29 -9 32 -16z
m-424 -14 c3 -13 6 -34 6 -48 0 -14 7 -34 15 -44 8 -11 15 -32 15 -46 0 -15 7
-41 16 -58 8 -17 14 -49 12 -69 -3 -36 -5 -38 -33 -35 -16 2 -37 10 -46 18 -8
8 -25 14 -37 14 -11 0 -27 7 -36 15 -8 8 -21 15 -29 15 -23 0 -47 11 -47 21 0
16 60 10 66 -6 4 -8 18 -15 34 -15 15 0 33 -7 40 -15 16 -19 49 -19 56 0 4 8
-1 26 -10 40 -9 13 -16 44 -16 67 0 24 -7 52 -15 62 -8 11 -15 39 -15 63 0 46
14 58 24 21z m-5724 -17 c0 -10 -7 -21 -15 -25 -11 -4 -15 1 -15 19 0 16 6 25
15 25 8 0 15 -9 15 -19z m6219 10 c10 -6 10 -10 1 -16 -14 -9 -60 2 -60 15 0
12 40 13 59 1z m-5689 -21 c0 -11 -4 -20 -10 -20 -5 0 -10 9 -10 20 0 11 5 20
10 20 6 0 10 -9 10 -20z m5867 -47 c9 -11 22 -14 47 -9 29 6 39 2 66 -23 38
-34 25 -51 -23 -28 -83 38 -104 47 -129 53 -16 3 -28 12 -28 19 0 17 51 7 67
-12z m-1171 2 c4 -9 19 -15 40 -15 18 0 37 -6 41 -14 4 -8 21 -16 37 -18 16
-1 31 -9 34 -15 5 -18 -43 -16 -62 2 -8 8 -22 15 -30 15 -9 0 -33 9 -53 20
-21 11 -46 20 -56 20 -10 0 -15 5 -12 10 10 15 55 12 61 -5z m-5197 -113 c1
-40 6 -83 13 -95 6 -12 13 -37 15 -56 2 -19 8 -41 14 -47 12 -15 -9 -54 -28
-54 -7 0 -13 1 -13 3 -26 131 -39 344 -23 361 12 12 21 -33 22 -112z m1386 88
c4 -6 -5 -10 -20 -10 -15 0 -24 4 -20 10 3 6 12 10 20 10 8 0 17 -4 20 -10z
m3018 4 c11 -11 -3 -24 -18 -18 -8 4 -12 10 -9 15 6 11 18 12 27 3z m-4863 -8
c0 -16 -14 -36 -25 -36 -8 0 -21 -7 -30 -16 -25 -26 -27 -11 -2 24 12 17 30
32 40 32 9 0 17 -2 17 -4z m1759 -25 c11 -7 10 -10 -6 -15 -27 -9 -60 3 -41
15 17 11 29 11 47 0z m4119 -41 c-10 -6 -25 -7 -40 -1 -20 9 -18 10 17 10 31
0 36 -2 23 -9z m-1182 -33 c11 -12 42 -50 68 -85 27 -35 59 -75 72 -89 23 -24
32 -53 17 -53 -10 0 -118 52 -123 60 -3 4 -17 10 -32 14 -16 3 -28 11 -28 16
0 15 32 12 51 -6 11 -10 23 -13 33 -7 12 7 7 19 -29 68 -25 33 -49 65 -55 72
-12 14 -13 33 -2 33 4 0 16 -10 28 -23z m1262 6 c-10 -2 -26 -2 -35 0 -10 3
-2 5 17 5 19 0 27 -2 18 -5z m-6518 -52 c0 -14 -18 -23 -30 -16 -6 4 -8 11 -5
16 8 12 35 12 35 0z m1650 -1 c0 -6 -8 -14 -17 -17 -10 -4 -24 -13 -31 -20 -7
-7 -20 -13 -28 -13 -8 0 -14 -5 -14 -10 0 -6 -8 -14 -17 -17 -10 -4 -32 -17
-49 -30 -37 -27 -54 -29 -54 -5 0 28 12 37 65 50 27 7 54 20 58 28 4 8 16 14
26 14 11 0 21 7 25 15 6 17 36 21 36 5z m1558 -7 c-16 -2 -40 -2 -55 0 -16 2
-3 4 27 4 30 0 43 -2 28 -4z m-3298 -14 l32 -12 -47 -23 c-74 -38 -96 -29 -53
21 25 29 24 29 68 14z m480 -8 c0 -12 -20 -25 -27 -18 -7 7 6 27 18 27 5 0 9
-4 9 -9z m2250 -6 c0 -11 12 -15 48 -15 60 0 86 -15 42 -24 -43 -8 -145 -8
-153 1 -9 9 33 53 50 53 7 0 13 -7 13 -15z m357 -6 c-12 -7 -35 -7 -70 -1
l-52 10 70 1 c53 0 66 -2 52 -10z m-2649 -33 c-8 -6 -28 -31 -45 -56 -18 -25
-57 -72 -87 -104 -45 -49 -56 -57 -62 -42 -3 9 -5 19 -3 22 31 40 196 200 203
196 5 -3 2 -10 -6 -16z m5622 -46 c0 -5 -7 -10 -15 -10 -8 0 -15 5 -15 10 0 6
7 10 15 10 8 0 15 -4 15 -10z m-5350 -31 c0 -14 -25 -39 -39 -39 -14 0 -14 6
-1 31 11 20 40 26 40 8z"/>
<path d="M5117 4635 c-7 -16 10 -29 113 -90 36 -22 70 -43 75 -47 6 -5 46 -32
90 -60 44 -29 82 -54 85 -57 3 -3 12 -10 21 -16 69 -42 499 -360 595 -440 33
-27 82 -68 109 -90 90 -73 237 -201 340 -295 135 -123 639 -636 715 -729 25
-30 50 -59 55 -65 6 -6 36 -43 68 -81 33 -39 68 -81 80 -95 12 -14 55 -66 97
-116 42 -50 82 -97 88 -105 11 -12 121 -162 347 -471 67 -92 107 -152 314
-475 152 -237 215 -345 354 -603 16 -30 33 -60 37 -65 5 -6 27 -46 50 -90 48
-91 57 -105 76 -105 34 0 24 41 -34 137 -32 54 -76 130 -97 168 -21 39 -49 88
-61 110 -13 22 -32 58 -44 80 -65 118 -88 157 -135 230 -28 44 -62 98 -75 120
-13 22 -27 42 -30 45 -3 3 -24 34 -45 70 -22 36 -59 93 -82 128 -24 34 -43 64
-43 66 0 11 -164 240 -370 519 -108 145 -330 421 -360 447 -3 3 -25 30 -50 60
-109 133 -146 174 -305 340 -72 74 -160 166 -195 204 -81 85 -433 417 -491
461 -14 11 -54 45 -89 75 -98 86 -132 113 -180 150 -25 18 -49 39 -55 45 -18
21 -369 281 -486 360 -63 43 -125 86 -139 96 -14 9 -79 52 -145 95 -66 43
-126 84 -133 91 -18 18 -59 16 -65 -2z"/>
<path d="M3830 4415 c-7 -8 -19 -15 -27 -15 -25 0 -145 -85 -193 -137 -67 -71
-127 -169 -215 -348 -42 -88 -95 -196 -117 -239 -31 -62 -37 -81 -26 -87 17
-11 20 -11 70 5 24 7 64 19 89 25 26 6 54 13 63 17 33 13 26 -25 -16 -87 -24
-35 -102 -161 -173 -279 -71 -118 -133 -219 -137 -225 -4 -5 -19 -24 -33 -41
-51 -64 -25 -81 60 -39 28 13 53 25 58 25 4 0 49 20 100 45 89 43 127 54 127
38 0 -5 -39 -55 -88 -113 -48 -58 -114 -142 -147 -185 -98 -133 -181 -237
-231 -292 -29 -33 -44 -58 -41 -68 9 -21 24 -19 82 10 28 13 56 25 63 25 7 0
20 4 30 10 9 5 28 14 42 20 14 5 32 15 41 22 9 6 24 8 33 5 13 -5 -39 -62
-224 -244 -132 -130 -240 -242 -240 -249 0 -43 82 -12 335 126 39 21 80 39 92
39 l22 1 -5 -167 c-3 -93 -9 -211 -14 -263 -13 -124 -15 -208 -6 -218 12 -11
78 76 171 227 22 36 50 77 60 87 16 18 38 52 61 92 31 56 46 52 97 -25 25 -37
54 -78 64 -90 10 -11 25 -31 33 -43 25 -37 138 -194 155 -215 8 -10 15 -23 15
-27 0 -4 8 -8 19 -8 22 0 45 25 37 39 -6 9 -21 110 -51 349 -8 62 -17 117 -19
121 -3 5 -10 47 -15 94 -6 47 -15 94 -22 105 -7 11 -9 28 -5 38 7 18 8 18 18
-1 7 -11 17 -24 23 -30 6 -5 20 -30 30 -55 11 -25 45 -88 75 -140 31 -52 65
-113 76 -135 21 -41 39 -52 63 -36 12 8 13 21 3 78 -10 63 -17 137 -42 493 -6
74 -17 178 -25 231 -20 127 -20 189 0 189 8 0 15 -9 15 -19 0 -11 5 -23 11
-26 5 -4 15 -17 20 -28 5 -12 18 -35 29 -52 11 -16 24 -39 30 -50 10 -20 29
-51 43 -69 30 -42 97 -149 117 -188 24 -49 43 -60 54 -33 5 14 -11 221 -18
234 -2 3 -7 83 -10 176 -3 94 -11 231 -16 305 -26 350 -29 395 -21 403 9 9 69
-18 338 -150 73 -35 137 -61 144 -58 11 8 4 71 -11 90 -4 6 -17 44 -30 85 -12
41 -33 107 -47 145 -13 39 -27 79 -30 90 -3 11 -11 34 -19 52 -8 17 -14 40
-14 51 0 12 -4 23 -9 27 -5 3 -13 20 -16 37 -4 18 -20 62 -35 99 -33 81 -27
99 21 66 19 -13 72 -49 119 -82 47 -32 134 -91 194 -132 60 -41 165 -117 235
-169 161 -121 168 -126 216 -168 22 -20 43 -36 46 -36 3 0 17 -9 30 -21 13
-11 35 -30 49 -42 14 -12 48 -40 75 -62 310 -247 853 -785 1138 -1127 79 -96
151 -181 158 -189 8 -7 32 -36 54 -64 22 -27 48 -59 58 -70 31 -34 91 -115
230 -309 27 -38 53 -74 58 -80 22 -27 169 -227 169 -230 0 -4 82 -132 97 -152
9 -12 21 -31 59 -94 26 -42 80 -127 180 -280 23 -36 59 -96 79 -135 21 -38 49
-87 61 -107 13 -20 46 -79 73 -130 27 -52 66 -123 87 -159 22 -35 48 -81 58
-102 23 -44 41 -61 56 -52 20 12 9 49 -40 130 -27 46 -50 85 -50 89 0 3 -13
27 -28 53 -16 27 -55 95 -87 153 -87 156 -215 370 -245 410 -15 19 -30 42 -33
50 -4 8 -15 27 -25 42 -9 15 -53 83 -97 152 -44 70 -110 168 -147 219 -37 50
-79 110 -95 132 -85 121 -327 441 -383 506 -36 42 -81 96 -102 120 -400 483
-763 847 -1288 1293 -14 11 -56 46 -95 76 -38 30 -72 57 -75 61 -3 3 -54 42
-115 87 -60 45 -115 86 -122 92 -11 9 -52 38 -263 186 -41 29 -106 72 -143 96
-38 24 -80 51 -95 60 -15 10 -34 21 -42 25 -8 3 -36 23 -62 43 l-47 37 -46
-15 c-44 -14 -46 -16 -39 -46 3 -17 12 -44 19 -61 7 -16 23 -59 35 -95 12 -36
28 -77 36 -92 8 -14 14 -35 14 -46 0 -12 4 -23 9 -26 5 -3 12 -23 16 -43 4
-21 10 -42 15 -48 4 -5 10 -23 14 -40 6 -28 28 -81 48 -115 18 -33 20 -42 11
-51 -11 -11 -40 -1 -88 31 -16 11 -39 24 -50 30 -11 6 -40 22 -65 36 -112 64
-234 124 -253 124 -19 0 -19 -4 -13 -67 4 -38 14 -149 22 -248 27 -333 43
-490 53 -525 13 -42 14 -107 2 -114 -4 -3 -26 22 -46 57 -21 34 -51 78 -67 98
-15 20 -28 39 -28 42 0 3 -29 48 -64 99 -34 51 -71 108 -80 126 -16 30 -39 42
-50 24 -8 -13 46 -757 60 -830 6 -29 4 -31 -14 -25 -19 8 -117 127 -188 230
-37 53 -71 73 -81 47 -3 -8 0 -20 6 -28 7 -8 16 -47 21 -87 5 -41 14 -92 19
-114 6 -22 11 -61 11 -87 0 -26 4 -59 10 -73 5 -14 13 -59 16 -98 3 -40 12
-101 19 -137 23 -103 23 -154 3 -158 -13 -2 -18 3 -18 17 0 11 -4 22 -9 25 -5
3 -19 25 -31 48 -12 23 -48 84 -81 136 -32 52 -59 98 -59 103 0 5 -11 9 -25 9
-18 0 -29 -9 -40 -32 -8 -18 -31 -62 -51 -98 -59 -105 -94 -178 -94 -194 0
-19 -26 -21 -33 -3 -4 11 5 230 17 435 5 74 3 82 -13 82 -10 0 -31 -12 -46
-26 -16 -15 -31 -22 -37 -16 -5 5 10 27 39 55 26 26 97 94 156 152 128 123
124 137 -28 96 -22 -6 -57 -13 -77 -16 -24 -4 -38 -11 -38 -20 0 -8 -4 -15 -8
-15 -16 0 -30 23 -24 39 4 12 86 115 112 141 3 3 41 50 85 105 43 55 86 108
95 117 8 9 40 49 70 90 30 40 79 98 108 129 54 58 61 73 39 82 -12 4 -83 -20
-129 -44 -10 -5 -23 -9 -29 -9 -7 0 -33 -9 -58 -21 -25 -12 -59 -27 -76 -34
-16 -7 -51 -22 -76 -34 -93 -43 -102 -21 -31 73 26 35 54 74 62 86 8 12 33 47
55 78 23 32 52 75 65 97 13 22 27 42 30 45 3 3 37 52 75 108 39 57 74 110 80
118 21 29 -8 35 -111 20 -54 -8 -113 -19 -131 -25 -47 -14 -59 6 -29 50 12 19
42 70 66 114 23 44 55 96 70 115 15 19 46 62 69 95 63 91 207 233 244 243 25
6 32 14 32 33 0 16 -5 23 -15 20 -23 -6 -43 -5 -66 2 -14 5 -26 2 -34 -8z
m-40 -80 c0 -3 -28 -34 -63 -69 -35 -36 -77 -84 -93 -108 -16 -24 -46 -67 -67
-96 -21 -29 -54 -83 -73 -120 -39 -74 -49 -94 -64 -119 -6 -10 -15 -30 -21
-45 -6 -16 -15 -28 -20 -28 -5 0 -9 -9 -9 -20 0 -18 7 -20 68 -20 37 0 94 7
127 15 33 7 64 10 69 5 9 -9 -30 -75 -115 -195 -27 -38 -54 -80 -59 -92 -5
-13 -14 -23 -19 -23 -5 0 -11 -9 -14 -20 -3 -11 -10 -20 -16 -20 -17 0 -13 30
4 36 8 4 15 12 15 19 0 8 6 20 14 27 7 8 17 24 20 36 4 12 12 22 17 22 5 0 9
7 9 16 0 8 16 39 35 68 19 29 35 58 35 65 0 15 -51 13 -130 -4 -120 -26 -128
-21 -85 59 14 26 25 55 25 65 0 9 4 21 9 27 6 5 39 65 74 134 96 187 162 277
267 363 30 24 60 35 60 22z m700 -285 c0 -14 7 -35 15 -46 8 -10 15 -30 15
-44 0 -14 7 -36 15 -50 16 -28 20 -80 6 -80 -5 0 -13 15 -16 33 -4 17 -14 41
-21 52 -8 11 -14 27 -14 36 0 10 -6 30 -14 46 -22 45 -45 121 -38 127 11 12
52 -47 52 -74z m85 -266 c7 -39 -1 -57 -15 -34 -12 19 -13 70 -1 70 5 0 12
-16 16 -36z m35 -108 c0 -12 7 -30 15 -40 8 -11 15 -32 15 -47 0 -15 7 -29 15
-33 10 -3 15 -19 15 -46 0 -22 4 -40 9 -40 12 0 22 -45 15 -64 -11 -28 -24
-17 -24 18 0 18 -7 39 -15 46 -8 7 -15 27 -15 45 0 18 -7 38 -15 45 -8 7 -15
26 -15 42 0 16 -7 36 -15 44 -8 9 -15 32 -15 52 1 35 2 36 15 18 8 -11 15 -29
15 -40z m-317 -75 c6 -6 19 -11 29 -11 10 0 21 -6 24 -14 3 -8 16 -17 30 -20
13 -4 24 -11 24 -16 0 -15 -36 -12 -50 5 -7 8 -23 15 -35 15 -12 0 -28 7 -35
15 -7 9 -23 15 -34 13 -29 -4 -31 -42 -12 -192 17 -131 22 -371 7 -380 -11 -7
-21 78 -21 194 -1 52 -7 122 -15 155 -14 58 -21 266 -9 277 7 7 80 -24 97 -41z
m-650 -407 c6 -6 -71 -116 -97 -139 -7 -5 -34 -38 -61 -73 -28 -35 -76 -96
-108 -135 -31 -40 -85 -108 -119 -152 -33 -44 -67 -85 -75 -92 -27 -21 -4 -36
47 -29 25 3 49 3 53 0 12 -13 -15 -34 -42 -34 -15 0 -35 -6 -46 -14 -11 -7
-31 -16 -45 -19 -14 -3 -35 -9 -47 -12 -14 -5 -23 -3 -23 3 0 11 192 273 221
302 8 8 52 65 97 125 45 61 85 115 89 120 45 58 63 85 63 95 0 30 74 73 93 54z
m-273 -94 c11 -7 7 -10 -17 -10 -18 0 -33 5 -33 10 0 13 30 13 50 0z m-60 -29
c0 -10 -24 -21 -47 -21 -9 0 -22 -8 -29 -17 -10 -15 -15 -16 -26 -5 -11 11 -9
17 11 33 23 19 91 27 91 10z m679 -64 c10 -25 8 -29 -14 -37 -29 -11 -31 -26
-10 -66 11 -22 15 -65 15 -176 0 -81 5 -159 11 -175 6 -15 15 -109 19 -208 5
-99 14 -209 20 -244 14 -79 1 -98 -29 -44 -13 21 -26 45 -31 53 -5 8 -19 33
-31 55 -12 22 -33 56 -48 75 -33 45 -47 68 -64 105 -30 66 -62 64 -69 -5 -2
-22 -7 -2 -12 53 -5 48 -5 91 -1 95 3 4 15 -5 26 -19 10 -14 37 -45 59 -69 23
-24 62 -72 87 -106 25 -35 50 -61 55 -58 11 7 10 157 -3 229 -5 33 -14 141
-19 240 -5 99 -14 220 -19 269 -6 49 -8 93 -5 98 8 12 51 -32 63 -65z m289
-192 c1 -105 -11 -153 -21 -90 -9 55 -9 220 1 229 12 12 20 -42 20 -139z
m-172 33 c13 -14 24 -30 24 -35 0 -5 12 -22 28 -39 34 -39 51 -64 58 -86 4
-10 10 -18 15 -18 20 0 49 -42 49 -70 0 -16 -4 -30 -8 -30 -8 0 -73 84 -85
110 -4 8 -16 29 -27 45 -11 17 -23 37 -27 45 -8 16 -19 31 -45 61 -10 10 -18
24 -18 29 0 6 -7 13 -15 16 -8 4 -15 16 -15 28 1 20 1 20 21 -4 11 -14 31 -37
45 -52z m-703 -256 c6 -8 -16 -36 -52 -67 l-23 -20 8 40 c4 22 12 43 18 47 14
10 44 10 49 0z m-83 -94 c-1 -15 -49 -53 -56 -45 -5 5 42 57 51 57 3 0 5 -6 5
-12z m-88 -100 c-16 -24 -66 -78 -111 -121 -44 -42 -81 -85 -81 -95 0 -9 -6
-24 -13 -33 -14 -19 -85 -54 -93 -46 -3 3 25 37 63 76 37 38 109 112 158 165
50 52 94 95 98 95 4 1 -5 -18 -21 -41z m56 -124 c1 -21 -1 -102 -6 -179 l-8
-140 -8 143 c-5 78 -12 142 -17 142 -5 0 -36 -14 -69 -32 -96 -50 -94 -23 3
50 45 34 87 60 92 58 6 -1 11 -20 13 -42z m499 -201 c-3 -10 -5 -2 -5 17 0 19
2 27 5 18 2 -10 2 -26 0 -35z m-219 7 c12 -16 22 -31 22 -34 0 -3 14 -25 30
-49 17 -25 30 -50 30 -56 0 -6 4 -11 10 -11 5 0 12 -11 16 -25 3 -14 12 -25
20 -25 8 0 14 -9 14 -20 0 -11 7 -20 15 -20 8 0 15 -9 15 -20 0 -25 -17 -26
-25 -1 -3 11 -12 22 -20 25 -8 3 -15 12 -15 21 0 8 -5 15 -10 15 -6 0 -13 8
-17 18 -6 16 -55 83 -80 110 -7 7 -13 18 -13 23 0 17 -50 10 -57 -8 -10 -25
-76 -113 -85 -113 -14 0 -9 30 6 36 8 3 17 16 20 30 4 13 11 24 16 24 6 0 10
6 10 14 0 8 6 21 13 28 7 7 18 25 24 41 16 35 34 34 61 -3z m252 -185 c0 -37
-4 -65 -10 -65 -11 0 -13 71 -4 108 10 37 14 25 14 -43z m-517 -141 c8 -8 -21
-64 -33 -64 -15 0 -22 20 -16 46 6 23 34 33 49 18z m550 -105 c-6 -6 -19 3
-36 29 -32 46 -33 52 -7 52 11 0 24 8 28 18 5 12 10 0 16 -36 6 -34 5 -57 -1
-63z"/>
<path d="M4560 4185 c0 -16 25 -54 39 -59 9 -3 25 -11 35 -18 11 -7 49 -32 84
-55 35 -24 65 -43 68 -43 2 0 32 -20 67 -44 34 -24 96 -66 137 -95 73 -51 180
-128 337 -244 43 -32 105 -80 138 -108 33 -27 87 -70 120 -96 71 -55 336 -286
450 -393 89 -82 245 -239 435 -436 188 -195 214 -224 375 -419 22 -27 45 -53
50 -59 59 -64 191 -228 277 -346 59 -80 111 -150 116 -155 5 -6 26 -35 47 -65
21 -30 42 -59 47 -65 45 -55 174 -243 268 -394 25 -39 74 -115 109 -169 80
-123 211 -337 211 -346 0 -3 10 -23 23 -44 21 -33 62 -106 122 -217 12 -22 43
-78 69 -124 25 -46 46 -87 46 -92 0 -18 37 -28 55 -15 16 11 14 17 -25 82 -36
58 -85 145 -121 214 -4 8 -30 54 -58 101 -28 48 -51 89 -51 92 0 8 -182 310
-190 317 -3 3 -22 32 -42 65 -41 68 -123 195 -136 210 -4 6 -25 39 -47 75 -22
36 -43 70 -47 75 -4 6 -44 60 -87 120 -125 172 -130 180 -269 365 -72 96 -146
191 -164 211 -18 20 -62 72 -98 115 -35 44 -67 81 -70 84 -3 3 -37 43 -75 90
-75 91 -132 153 -345 375 -286 297 -420 424 -685 651 -44 38 -82 71 -85 74 -3
3 -36 30 -75 60 -38 30 -72 57 -75 60 -3 3 -36 30 -75 60 -38 30 -74 58 -80
63 -38 30 -316 230 -370 267 -36 25 -91 63 -123 85 -31 23 -93 63 -137 89 -44
27 -96 61 -116 77 -31 25 -79 39 -79 24z"/>
</g>
</svg>
